<svg width="160" height="48" viewBox="0 0 160 48" fill="none" xmlns="http://www.w3.org/2000/svg">
<path d="M160 1.88493V45.6189C157.185 45.7853 154.369 45.9461 151.554 46.0931C150.25 46.1653 148.946 46.2318 147.654 46.2956C146.35 46.3622 145.046 46.426 143.742 46.487C143.096 46.5175 142.45 46.548 141.792 46.5757C122.194 47.4827 102.584 47.9542 82.9738 47.9958H82.9616C80.8897 48.0014 78.8178 48.0014 76.7459 47.9958H76.7337C57.1725 47.9515 37.6234 47.4744 18.0622 46.5674C17.4162 46.5397 16.7703 46.5092 16.1122 46.4759C14.8568 46.4177 13.6015 46.3566 12.3461 46.2929C11.0421 46.2318 9.75022 46.1625 8.44613 46.0931C5.63078 45.9434 2.81536 45.7853 0 45.6189V1.88493C2.82754 1.75734 5.64296 1.6353 8.44613 1.52159C9.75022 1.46611 11.0542 1.41342 12.3461 1.36627C13.6015 1.31634 14.8568 1.26919 16.1122 1.22481C16.7703 1.19985 17.4162 1.17489 18.0622 1.1527C38.0865 0.43157 57.6356 0.0543608 76.7215 0.00720977C78.8056 -0.001111 80.8897 -0.00111642 82.9738 0.00165717C103.059 0.0182987 122.657 0.395512 141.792 1.10832C142.438 1.13051 143.083 1.15547 143.742 1.18043C145.046 1.23036 146.35 1.28305 147.654 1.33575C148.958 1.38568 150.25 1.44116 151.554 1.4994C154.381 1.61867 157.197 1.74902 160 1.88493Z" fill="#8B0033"/>
</svg>
