<svg width="220" height="76" viewBox="0 0 220 76" fill="none" xmlns="http://www.w3.org/2000/svg">
<path d="M7.34615 13.4088C6.94347 13.0814 6.68003 12.4642 6.55208 11.5648L6.31499 9.72452L5.97252 9.51001L3.44733 10.131C3.66184 11.2449 3.80862 12.1255 3.88765 12.7766C3.96291 13.4276 4.00431 14.1276 4.00431 14.8878V14.9706C4.00431 15.727 3.92151 16.491 3.75593 17.2625C3.5941 18.034 3.28927 18.7339 2.84896 19.3624C2.40489 19.9909 1.79899 20.3484 1.02751 20.4312H0.940955C0.828055 20.4463 0.718916 20.45 0.62107 20.4425C0.51946 20.435 0.383979 20.4199 0.214629 20.3898L0.00012207 20.7962L1.21944 23.1747C1.3775 23.201 1.52427 23.2123 1.65975 23.2048C1.79523 23.1972 1.95705 23.186 2.14145 23.1747C3.59786 22.9301 4.67794 22.1623 5.38545 20.8715C6.09295 19.5807 6.44671 17.985 6.44671 16.0846C6.70261 16.4157 7.03756 16.6716 7.45152 16.856C7.86549 17.0404 8.32837 17.1345 8.84395 17.1345H9.20899V13.9018C8.36601 13.9018 7.74506 13.7362 7.34615 13.4088Z" fill="#F4F4F4"/>
<path d="M8.99438 13.9208V17.1347H11.9072V13.9208H8.99438Z" fill="#F4F4F4"/>
<path d="M11.7349 13.9208V17.1347H14.6477V13.9208H11.7349Z" fill="#F4F4F4"/>
<path d="M14.4784 13.9208V17.1347H17.3912V13.9208H14.4784Z" fill="#F4F4F4"/>
<path d="M33.7949 13.472C33.4788 13.186 33.3207 12.7306 33.3207 12.1021V9.40381L30.5396 10.0887V11.865C30.5396 12.2075 30.517 12.5123 30.4756 12.7758C30.4305 13.0392 30.3326 13.3515 30.1746 13.7091L30.0466 13.965C29.9299 13.9913 29.802 14.0177 29.659 14.0402C29.516 14.0591 29.373 14.0703 29.2337 14.0703C28.8047 14.0703 28.4848 13.9123 28.2778 13.5886C28.0708 13.2687 27.9692 12.772 27.9692 12.1021V10.8602L25.207 11.5451V11.9742C25.207 12.1285 25.1919 12.3166 25.1618 12.5274C25.1354 12.7419 25.0978 12.9376 25.0564 13.1069L24.7779 13.9875C24.65 13.9988 24.5107 14.0177 24.3602 14.0402C24.2097 14.0591 24.0629 14.0703 23.9199 14.0703C23.4796 14.0703 23.1522 13.9123 22.9452 13.5886C22.7382 13.2687 22.6366 12.772 22.6366 12.1021V10.8602L19.8517 11.5451V11.9064C19.8367 12.3505 19.8141 12.6741 19.7765 12.8811C19.7426 13.0881 19.6447 13.3704 19.4867 13.7279C19.4716 13.758 19.4566 13.7881 19.434 13.8257C19.4114 13.8596 19.3888 13.8859 19.3587 13.901H17.2814V17.1337H19.1254L20.4087 15.0338C20.5517 15.7939 20.8716 16.3735 21.3721 16.7799C21.8726 17.1864 22.5199 17.3896 23.3215 17.3896H24.9473L25.9107 15.2934C26.0688 15.9633 26.3811 16.4789 26.844 16.8326C27.3069 17.1901 27.8752 17.3708 28.545 17.3708H29.8321L31.2659 14.8004C31.4503 15.5418 31.8379 16.1176 32.4213 16.524C33.0083 16.9305 33.7572 17.1337 34.6717 17.1337H35.2513V13.901C34.5927 13.901 34.1072 13.758 33.7949 13.472Z" fill="#F4F4F4"/>
<path d="M35.1012 13.9208V17.1347H38.014V13.9208H35.1012Z" fill="#F4F4F4"/>
<path d="M37.8407 13.9208V17.1347H40.7535V13.9208H37.8407Z" fill="#F4F4F4"/>
<path d="M40.5842 13.9208V17.1347H43.4971V13.9208H40.5842Z" fill="#F4F4F4"/>
<path d="M58.6371 13.9015H58.3699C58.2607 13.9015 58.1666 13.894 58.0801 13.879C57.35 13.8639 56.8307 13.7849 56.5145 13.6419C56.2022 13.5026 56.0291 13.2354 56.0027 12.8516L55.9801 12.3172L57.5871 12.1215L57.6285 9.72425L57.3086 9.35921C56.6952 9.30276 56.142 9.23125 55.649 9.1447C55.156 9.0619 54.6404 8.94148 54.106 8.79471C53.5716 8.64418 52.8904 8.41085 52.0625 8.09849C51.9459 8.05333 51.7389 7.9743 51.4416 7.8614C50.6851 7.63183 50.1395 7.47377 49.812 7.39098C49.1572 7.21787 48.5024 7.06733 47.8551 6.92809C47.2041 6.79261 46.6057 6.68348 46.0638 6.59692L44.1821 9.03932L44.502 9.63769C45.1305 9.6678 45.7589 9.74683 46.3874 9.87478C47.0159 10.0027 47.5352 10.1307 47.9492 10.2586L50.2411 10.9436C50.6964 11.0753 51.1593 11.1957 51.6222 11.3086C52.0851 11.4253 52.5668 11.5307 53.0673 11.6285C52.1415 12.0011 51.4566 12.272 51.0238 12.4451C50.5873 12.6145 49.8572 12.893 48.8261 13.2806C48.1562 13.5214 47.5503 13.687 47.0084 13.7736C46.4664 13.8564 45.8718 13.9015 45.2283 13.9015H42.8536V17.1117H46.1917C47.2342 17.1117 48.1976 16.9348 49.0857 16.5773C49.9701 16.2198 50.8394 15.6628 51.6975 14.9064C52.2394 14.5639 52.6571 14.2967 52.9507 14.1048C53.2442 13.9128 53.4738 13.7585 53.6469 13.6419L53.8162 14.3494C54.1587 15.3354 54.6818 16.0429 55.3818 16.4719C56.0818 16.8972 56.936 17.1117 57.9521 17.1117L58.5505 17.1305L58.701 17.1343V13.9015C58.6785 13.9053 58.6559 13.9015 58.6371 13.9015ZM50.7115 18.5267L49.0631 20.1976L50.7115 21.9099L52.4464 20.1976L50.7115 18.5267Z" fill="#F4F4F4"/>
<path d="M63.6269 1.00867L60.8195 1.56563L60.8006 11.8659C60.8006 12.1519 60.7969 12.453 60.7894 12.7653C60.7818 13.0814 60.7781 13.3787 60.7781 13.6648C59.9276 13.8416 59.2313 13.9207 58.7007 13.9018C58.6781 13.9056 58.6555 13.9018 58.6367 13.9018L58.4636 14.1991L58.5502 17.1308V17.1346H59.5362C59.9915 17.1346 60.5447 17.0668 61.1958 16.9313C61.8431 16.7958 62.4829 16.634 63.1113 16.4496C63.2957 15.7195 63.4576 14.9405 63.593 14.1051C63.7285 13.2696 63.7963 12.5245 63.7963 11.8659V1.20059L63.6269 1.00867Z" fill="#F4F4F4"/>
<path d="M66.2161 1.50179L66.2386 17.1347H69.238V0.899658L66.2161 1.50179Z" fill="#F4F4F4"/>
<path d="M85.364 13.7173C85.1194 13.5969 84.9463 13.3975 84.8371 13.119C84.7317 12.8405 84.6791 12.4529 84.6791 11.9523V4.84341L81.7023 5.56973V6.85303L77.7809 8.37717C76.8099 8.90404 76.0836 9.53251 75.5981 10.2588C75.1127 10.9889 74.868 11.8319 74.868 12.7878C74.868 13.2432 74.9734 13.7625 75.1804 14.3383C75.3874 14.9178 75.6395 15.4635 75.9406 15.9791C76.6406 16.2049 77.3895 16.3479 78.1873 16.4081C78.9889 16.4646 79.7152 16.442 80.3738 16.3404L81.9168 14.1577C82.0598 15.2152 82.4248 15.9753 83.0194 16.4382C83.6103 16.9011 84.5436 17.1345 85.8118 17.1345L86.2822 17.1156L86.3914 17.1119V13.9017C85.9473 13.9017 85.6048 13.8415 85.364 13.7173ZM81.7023 11.2448C81.6872 11.5158 81.6119 11.7755 81.4765 12.0276C81.341 12.276 81.1754 12.483 80.9835 12.6486C80.7915 12.8104 80.5958 12.9383 80.3964 13.0211C79.8244 13.1641 79.2787 13.2657 78.7556 13.3222C78.2362 13.3786 77.826 13.3937 77.525 13.3636C77.3669 13.1378 77.2389 12.9045 77.1411 12.6674C77.0395 12.434 76.9906 12.2308 76.9906 12.0577C76.9906 11.7604 77.0959 11.4894 77.3105 11.2448C77.525 11.004 77.89 10.7518 78.4018 10.4959L81.7023 9.27661V11.2448ZM78.6163 0L76.968 1.67091L78.6163 3.40581L80.3512 1.67091L78.6163 0ZM82.4098 0L80.7388 1.67091L82.4098 3.40581L84.1409 1.67091L82.4098 0Z" fill="#F4F4F4"/>
<path d="M86.2825 13.9208V17.1347H89.1953V13.9208H86.2825Z" fill="#F4F4F4"/>
<path d="M89.0259 13.9208V17.1347H91.9387V13.9208H89.0259Z" fill="#F4F4F4"/>
<path d="M91.7655 13.9208V17.1347H94.6783V13.9208H91.7655Z" fill="#F4F4F4"/>
<path d="M94.5089 13.9208V17.1347H97.4217V13.9208H94.5089Z" fill="#F4F4F4"/>
<path d="M113.826 13.4731C113.51 13.1871 113.352 12.7317 113.352 12.1032V9.40491L110.571 10.0898V11.8661C110.571 12.2086 110.549 12.5134 110.507 12.7769C110.462 13.0403 110.364 13.3526 110.206 13.7102L110.078 13.9661C109.962 13.9924 109.834 14.0188 109.691 14.0413C109.548 14.0602 109.405 14.0714 109.265 14.0714C108.836 14.0714 108.516 13.9134 108.309 13.5897C108.102 13.2698 108.001 12.7731 108.001 12.1032V10.8613L105.239 11.5462V11.9753C105.239 12.1296 105.224 12.3177 105.193 12.5285C105.167 12.743 105.129 12.9387 105.088 13.108L104.81 13.9886C104.682 13.9999 104.542 14.0188 104.392 14.0413C104.241 14.0602 104.095 14.0714 103.952 14.0714C103.511 14.0714 103.184 13.9134 102.977 13.5897C102.77 13.2698 102.668 12.7731 102.668 12.1032V10.8613L99.8833 11.5462V11.9075C99.8683 12.3516 99.8419 12.6752 99.8081 12.8822C99.7742 13.0892 99.6764 13.3715 99.5183 13.729C99.5033 13.7591 99.4882 13.7892 99.4656 13.8268C99.443 13.8607 99.4205 13.887 99.3903 13.9021H97.313V17.1348H99.157L100.44 15.0349C100.583 15.795 100.903 16.3746 101.404 16.781C101.904 17.1875 102.552 17.3907 103.353 17.3907H104.979L105.942 15.2945C106.1 15.9644 106.413 16.48 106.876 16.8337C107.339 17.1912 107.907 17.3719 108.577 17.3719H109.864L111.298 14.8015C111.482 15.5429 111.87 16.1187 112.453 16.5251C113.014 16.9128 113.717 17.116 114.575 17.131C114.617 17.1348 114.662 17.1348 114.703 17.1348H115.283V13.9021C114.624 13.9021 114.139 13.7591 113.826 13.4731Z" fill="#F4F4F4"/>
<path d="M130.231 9.19067L127.359 9.91699C127.487 10.346 127.585 10.7261 127.649 11.0535C127.713 11.3809 127.751 11.7159 127.766 12.0583C127.811 12.6718 127.743 13.2814 127.574 13.8798C127.16 14.0228 126.848 14.0943 126.633 14.0943C126.219 14.0943 125.899 13.9249 125.677 13.59C125.459 13.2551 125.346 12.7508 125.346 12.0809V10.8616L122.542 11.5465V12.1863C122.542 12.3745 122.527 12.54 122.497 12.6906C122.471 12.8411 122.418 13.0105 122.347 13.1949L122.113 13.9212L121.278 14.0943C120.819 14.0943 120.488 13.9362 120.281 13.6239C120.074 13.3078 119.972 12.7959 119.972 12.0809V10.8616L117.21 11.4825L117.228 12.1863C117.228 12.4874 117.18 12.7922 117.082 13.097C116.98 13.4056 116.867 13.6728 116.735 13.9024H114.575V17.1351H116.096L117.721 15.0163C117.864 15.7878 118.192 16.3786 118.707 16.7926C119.223 17.2066 119.863 17.4136 120.634 17.4136H121.857L123.291 15.2496C123.434 15.9233 123.814 16.4501 124.435 16.834C125.056 17.2216 125.767 17.4136 126.569 17.4136C126.912 17.4136 127.341 17.3458 127.864 17.2103C128.383 17.0749 128.902 16.913 129.414 16.7286C129.685 16.2281 129.907 15.6824 130.08 15.0916C130.25 14.497 130.359 13.8647 130.4 13.1949C130.487 12.1223 130.43 10.7901 130.231 9.19067Z" fill="#F4F4F4"/>
<path d="M141.599 13.9016C141.388 12.0463 140.876 10.556 140.071 9.43452C139.262 8.31304 138.167 7.75231 136.782 7.75231C135.698 7.75231 134.727 8.2867 133.869 9.35172C133.015 10.413 132.334 11.7076 131.837 13.2355C132.119 14.4774 132.699 15.5048 133.572 16.3101C134.441 17.1155 135.596 17.4617 137.038 17.3488L139.695 16.9838C139.51 17.8418 139.066 18.4628 138.366 18.8466C137.666 19.2342 136.718 19.4262 135.517 19.4262C135.062 19.4262 134.607 19.3923 134.159 19.3283C133.707 19.2643 133.184 19.1627 132.586 19.0197L132.349 19.4676L134.426 22.1019C134.881 22.2449 135.333 22.3164 135.777 22.3164C136.804 22.403 137.723 22.2524 138.528 21.8686C139.333 21.4809 139.996 20.8901 140.508 20.0885C141.023 19.2907 141.373 18.3047 141.557 17.1343H142.713V13.9016H141.599ZM138.987 14.1349L136.718 14.1575C136.146 14.1575 135.638 14.0597 135.186 13.8677C134.738 13.6758 134.354 13.4349 134.042 13.1527C134.042 12.7952 134.151 12.4151 134.373 12.0162C134.595 11.6173 134.889 11.2748 135.261 10.9888C135.634 10.7028 136.01 10.5598 136.398 10.5598C136.966 10.5598 137.482 10.7404 137.937 11.0941C138.396 11.4517 138.724 11.907 138.923 12.4565C139.123 13.0059 139.145 13.5667 138.987 14.1349ZM137.297 4.86207C136.868 4.87712 136.522 4.80186 136.259 4.64003C135.992 4.47445 135.818 4.27123 135.732 4.02661C135.818 3.82715 135.943 3.65405 136.108 3.50351C136.27 3.35298 136.477 3.27771 136.718 3.27771C136.932 3.27771 137.124 3.32663 137.297 3.41695C137.467 3.51103 137.587 3.6277 137.659 3.77071H137.745L138.302 2.50622C138.133 2.26537 137.907 2.07721 137.629 1.93796C137.35 1.80248 137.045 1.73474 136.718 1.73474C136.191 1.73474 135.736 1.94549 135.359 2.36698C134.979 2.78847 134.689 3.30781 134.49 3.92124C134.561 4.2223 134.674 4.4895 134.821 4.72283C134.972 4.95992 135.16 5.09916 135.389 5.14055L134.193 5.31367V6.89803L139.01 6.19053V4.64756L137.297 4.86207Z" fill="#F4F4F4"/>
<path d="M142.48 13.9208V17.1347H145.393V13.9208H142.48Z" fill="#F4F4F4"/>
<path d="M155.286 7.77512L152.264 7.73373C151.365 7.68857 150.567 7.89555 149.867 8.35468C149.167 8.81004 148.603 9.51755 148.177 10.4734C148.102 10.6465 148.038 10.8084 147.974 10.9664C147.907 11.1245 147.839 11.2863 147.767 11.4594C147.613 11.8884 147.459 12.2535 147.308 12.5508C147.158 12.8519 146.973 13.1228 146.751 13.3637C146.529 13.6083 146.254 13.7852 145.927 13.9018H145.156V17.1345H147L148.155 14.9932C148.411 15.4373 148.746 15.8399 149.16 16.2012C149.574 16.5663 150.04 16.8523 150.563 17.0593C151.083 17.2662 151.625 17.3716 152.182 17.3716C153.107 17.3716 153.905 17.1835 154.568 16.8147C155.234 16.4421 155.738 15.9265 156.088 15.2604C156.438 14.598 156.615 13.8491 156.615 13.0212V9.10357L155.286 7.77512ZM153.935 13.7287C153.567 13.9733 153.092 14.0938 152.524 14.0938C151.994 14.0938 151.455 13.9997 150.906 13.8153C150.356 13.6309 149.845 13.3599 149.374 13.0024C149.69 12.4003 149.991 11.9487 150.285 11.6401C150.578 11.3352 150.895 11.1207 151.237 11.0003C151.58 10.8799 151.982 10.8159 152.438 10.8159C152.893 10.8159 153.488 10.8761 154.214 10.989C154.402 11.7304 154.564 12.2949 154.707 12.6787C154.564 13.1379 154.308 13.4879 153.935 13.7287Z" fill="#F4F4F4"/>
<path d="M19.4865 41.1328L16.7054 41.8177C16.8183 42.4048 16.8898 42.7849 16.9162 42.9542C17.0178 43.5413 17.0667 44.0832 17.0667 44.58C17.0667 45.2084 17.0027 45.8444 16.8748 46.488C16.0882 46.6874 15.1813 46.8568 14.1539 46.9923C13.1265 47.1277 12.0841 47.1955 11.0303 47.1955C9.2879 47.1955 7.92182 47.0186 6.93959 46.6686C5.95359 46.3186 5.34017 45.7014 5.09555 44.817C5.009 44.531 4.97889 44.2413 5.00147 43.9515C5.02029 43.6579 5.08051 43.3381 5.18212 42.9956L5.20469 42.9542L4.56116 42.6117L2.31069 44.1961C2.23919 45.8256 2.53649 47.0976 3.2026 48.0196C3.86494 48.9417 4.83965 49.5852 6.12295 49.9578C7.41001 50.3266 9.04329 50.5147 11.0303 50.5147C12.2572 50.5147 13.5555 50.3943 14.9254 50.1497C16.2952 49.9089 17.5522 49.6153 18.6962 49.2728C19.0086 48.6444 19.272 47.9519 19.4865 47.1955C19.701 46.439 19.8102 45.7165 19.8102 45.0316C19.8365 43.9477 19.7312 42.6494 19.4865 41.1328ZM8.99436 38.521L7.34603 40.1919L8.99436 41.9268L10.7293 40.1919L8.99436 38.521ZM12.7427 38.521L11.0717 40.1919L12.7427 41.9268L14.455 40.1919L12.7427 38.521Z" fill="#F4F4F4"/>
<path d="M32.1761 43.9069C31.8261 43.2446 31.2729 42.5973 30.5165 41.9688C30.9003 41.5435 31.1976 41.1145 31.4046 40.6855C31.6116 40.2565 31.7584 39.8049 31.8449 39.3232C31.9315 38.8452 31.9729 38.2732 31.9729 37.5996V34.0884L28.9735 34.9013V37.5996C28.9735 38.0738 28.9547 38.4764 28.9208 38.8114C28.887 39.1463 28.8154 39.4587 28.7176 39.7409C28.616 40.0269 28.4617 40.3205 28.2472 40.6215L22.0791 36.3389L20.7092 39.1426L26.3204 43.0414L21.5447 47.0681L22.9559 50.2369H28.0101C28.409 50.2369 28.981 50.1578 29.7224 49.9998C30.4676 49.8455 31.2089 49.6573 31.9503 49.4428C32.1648 48.931 32.3455 48.3815 32.4885 47.7945C32.6277 47.2111 32.6992 46.6805 32.6992 46.2101C32.6992 45.3408 32.5261 44.573 32.1761 43.9069ZM29.2407 47.0041C28.8493 47.0154 28.4692 47.023 28.0967 47.023H24.3898L28.1192 44.0687C28.5746 44.3548 28.9547 44.6333 29.2633 44.9042C29.5719 45.1752 29.7939 45.4537 29.9369 45.7397C30.1251 46.037 30.253 46.4396 30.3246 46.9402C29.9934 46.9665 29.6359 46.9891 29.2407 47.0041Z" fill="#F4F4F4"/>
<path d="M43.6364 46.1464C43.4708 45.1754 43.245 44.4114 42.959 43.8545C42.5299 42.8986 41.9692 42.1647 41.2805 41.6492C40.5843 41.1336 39.7978 40.8777 38.9134 40.8777C37.886 40.8777 36.9376 41.4045 36.0758 42.462C35.2103 43.5195 34.5065 44.8104 33.9646 46.3383C34.292 47.5952 34.8979 48.6377 35.7748 49.4656C36.6516 50.2935 37.7919 50.6511 39.1919 50.5344C39.7601 50.493 40.6408 50.3236 41.8262 50.0226C41.6945 50.621 41.4574 51.1027 41.1074 51.4677C40.7574 51.8328 40.2945 52.0962 39.715 52.2618C39.1354 52.4236 38.4467 52.5064 37.6489 52.5064C37.1634 52.5064 36.6441 52.4763 36.0946 52.4123C35.5452 52.3445 34.9845 52.2505 34.4162 52.1225V52.8075L36.6215 55.2461C37.0505 55.3628 37.4758 55.4192 37.9048 55.4192C38.6913 55.4907 39.4365 55.3966 40.144 55.1407C40.8515 54.8848 41.4687 54.4934 41.9956 53.9741C42.5262 53.451 42.91 52.8564 43.1509 52.1865C43.4971 51.3134 43.7041 50.3312 43.7756 49.2398C43.8471 48.1484 43.7982 47.1173 43.6364 46.1464ZM41.1413 47.2189C40.8252 47.2904 40.5203 47.328 40.2193 47.3356C39.9182 47.3431 39.6247 47.3243 39.3424 47.2829C38.7139 47.2227 38.1193 47.0947 37.5623 46.8953C37.0054 46.6958 36.55 46.4738 36.1925 46.2329C36.2226 45.8754 36.3468 45.4953 36.5688 45.0964C36.7871 44.6975 37.0769 44.3625 37.4344 44.0916C37.7919 43.8206 38.157 43.6814 38.5258 43.6814C39.0677 43.6814 39.5644 43.8281 40.016 44.1217C40.4639 44.4152 40.7988 44.8292 41.0096 45.3636C41.2241 45.898 41.2692 46.5189 41.1413 47.2189Z" fill="#F4F4F4"/>
<path d="M48.6151 46.9178C48.6151 46.2893 48.6113 45.6834 48.6038 45.0963C48.5963 44.513 48.5925 44.005 48.5925 43.5759L48.5699 35.116L45.5931 35.5864V44.9684C45.5931 45.7097 45.6458 46.5264 45.755 47.4221C45.8603 48.314 45.9883 49.1306 46.1313 49.872C46.5566 49.9736 47.0947 50.0564 47.7345 50.1279C48.378 50.1994 49.0855 50.237 49.857 50.237H50.9258V47.0043C50.4554 47.0043 49.6839 46.9742 48.6151 46.9178Z" fill="#F4F4F4"/>
<path d="M50.734 47.0223V50.2362H53.6468V47.0223H50.734Z" fill="#F4F4F4"/>
<path d="M64.3345 47.0003C64.0071 47.0003 63.706 46.9965 63.4351 46.9928C63.0324 46.9852 62.6485 46.9664 62.276 46.9401C62.6749 46.7105 63.0361 46.3304 63.3598 45.8035C63.6797 45.2767 63.9318 44.6971 64.12 44.0686C63.7474 42.8568 63.1679 41.8219 62.3851 40.9752C61.5986 40.1247 60.6351 39.6994 59.4911 39.6994C58.3094 39.6994 57.3121 40.1172 56.5068 40.9526C55.6976 41.7881 55.1181 42.8117 54.7606 44.0272C54.9751 44.4977 55.2762 45.0396 55.6713 45.653C56.0627 46.2664 56.4089 46.7105 56.71 46.9815C56.424 46.9965 56.0853 47.004 55.6901 47.004H53.4735V47.0229L53.5187 50.2367H55.9799C56.6648 50.2367 57.2143 50.2142 57.6282 50.1728L59.1486 48.9723C60.5787 49.8153 62.0351 50.2367 63.5178 50.2367H64.8237V47.004C64.6544 47.004 64.4926 47.0041 64.3345 47.0003ZM61.0152 46.0068C60.5975 46.3718 60.1421 46.6089 59.6416 46.7256C59.0583 46.6089 58.5277 46.3643 58.0573 45.9842C57.5868 45.6079 57.203 45.1826 56.9019 44.7122C57.1578 44.1552 57.4965 43.681 57.918 43.2859C58.3395 42.8945 58.8212 42.6988 59.3631 42.6988C59.9088 42.6988 60.4093 42.902 60.876 43.3084C61.3389 43.7149 61.719 44.2116 62.02 44.795C61.7641 45.239 61.4292 45.6417 61.0152 46.0068ZM56.774 34.8184L55.1256 36.4855L56.774 38.2016L58.4863 36.4855L56.774 34.8184ZM60.7368 34.8184L59.0658 36.4855L60.7368 38.2016L62.4491 36.4855L60.7368 34.8184Z" fill="#F4F4F4"/>
<path d="M77.8902 47.0045C77.6757 47.0045 77.495 46.9819 77.3445 46.9405C77.194 46.8954 77.0321 46.8164 76.8628 46.7035C76.6031 46.4739 76.3886 46.139 76.2193 45.6949L73.5435 40.9418L71.1011 40.8778C70.2167 40.8364 69.4114 41.0509 68.6926 41.5213C67.97 41.9918 67.4093 42.6842 67.0104 43.5987L66.4534 45.1379C66.2389 45.6384 66.0583 46.011 65.9077 46.2519C65.7572 46.4965 65.5841 46.6733 65.3809 46.79C65.1814 46.9029 64.9104 46.9669 64.568 46.9819C64.4927 46.9932 64.4174 47.0008 64.3347 47.0008C64.3196 47.0045 64.3045 47.0045 64.2895 47.0045H63.9922V50.2372H66.0018L67.1383 47.7308C67.3114 48.4722 67.7141 49.1082 68.3501 49.6351C68.9824 50.1657 69.7501 50.4292 70.6495 50.4292H73.2199L74.2285 47.7948C74.5822 48.6228 75.0263 49.2362 75.5531 49.6351C76.0838 50.0378 76.7537 50.2372 77.5665 50.2372H78.0181V47.0045H77.8902ZM72.8774 47.2378L71.2705 47.219C70.657 47.204 70.0888 47.0723 69.5694 46.8201C69.0463 46.5717 68.6662 46.233 68.4254 45.804C68.5533 45.5029 68.7378 45.2094 68.9786 44.9272C69.2232 44.6412 69.5168 44.4078 69.8592 44.2309C70.2017 44.0503 70.5931 43.9562 71.0371 43.9412L72.7909 43.9826L73.6903 46.3836L72.8774 47.2378Z" fill="#F4F4F4"/>
<path d="M83.6181 46.6055C83.3546 46.342 83.2229 45.8528 83.2229 45.1378V34.0021L80.201 34.7961V45.0738C80.201 45.3184 80.1633 45.5894 80.0843 45.8905C80.0053 46.1878 79.915 46.4549 79.8171 46.6807C79.7193 46.899 79.6703 47.0044 79.6666 47.0044H77.7812L77.7623 50.2371H79.5612L80.7579 47.5802C80.9009 48.4382 81.2848 49.093 81.9058 49.5522C82.5267 50.0075 83.3735 50.2371 84.4422 50.2371H85.0406V47.0044C84.3557 47.0044 83.8815 46.8727 83.6181 46.6055Z" fill="#F4F4F4"/>
<path d="M90.0977 34.1112L87.2903 34.6682L87.2677 44.9684C87.2677 45.2544 87.264 45.5555 87.2564 45.8679C87.2527 46.1802 87.2489 46.4813 87.2489 46.7673C86.3607 46.9517 85.6495 47.0307 85.1076 47.0044L85.0398 47.121L84.9344 47.3017L85.021 50.2371H86.007C86.4624 50.2371 87.0156 50.1693 87.6666 50.0339C88.3139 49.8984 88.9537 49.7366 89.5822 49.5522C89.7666 48.8221 89.9284 48.0431 90.0639 47.2076C90.1994 46.3721 90.2671 45.6232 90.2671 44.9684V34.3031L90.0977 34.1112Z" fill="#F4F4F4"/>
<path d="M102.065 46.5114C101.666 46.1802 101.403 45.5668 101.275 44.6673L101.038 42.8271L100.696 42.6125L98.1704 43.2335C98.3849 44.3475 98.5316 45.2281 98.6107 45.8791C98.6859 46.5264 98.7273 47.2302 98.7273 47.9866V48.0731C98.7273 48.8296 98.6445 49.5935 98.479 50.365C98.3171 51.1365 98.0123 51.8365 97.5682 52.465C97.1279 53.0934 96.522 53.4472 95.7505 53.5337H95.664C95.5511 53.5488 95.4419 53.5526 95.3441 53.545C95.2425 53.5375 95.107 53.5187 94.9377 53.4924L94.7231 53.8988L95.9425 56.2772C96.1005 56.3036 96.2473 56.3148 96.3828 56.3073C96.5183 56.2998 96.6763 56.2885 96.8645 56.2772C98.3209 56.0326 99.401 55.2649 100.108 53.9741C100.816 52.6795 101.166 51.0876 101.166 49.1871C101.426 49.5145 101.761 49.7742 102.175 49.9586C102.589 50.143 103.051 50.2371 103.567 50.2371H103.932V47.0044C103.089 47.0044 102.468 46.8388 102.065 46.5114Z" fill="#F4F4F4"/>
<path d="M123.321 46.854C122.971 46.7524 122.655 46.5831 122.369 46.3385C122.583 46.0111 122.693 45.567 122.693 45.01C122.693 44.1106 122.489 43.2902 122.079 42.5488C121.673 41.8074 121.101 41.2128 120.356 40.7725C119.614 40.3284 118.756 40.1064 117.785 40.1064C115.858 40.1064 114.131 40.8214 112.603 42.2477C111.433 43.3353 110.405 44.7917 109.521 46.617C109.235 46.4325 109.024 46.218 108.889 45.9734C108.753 45.7326 108.685 45.4466 108.685 45.1192V43.9412L106.221 44.581V45.2697C106.221 45.5256 106.187 45.8078 106.115 46.1127C106.044 46.4212 105.957 46.7185 105.859 47.0046H103.673V50.2373H105.517L106.759 47.411C106.984 48.4233 107.654 49.161 108.761 49.6276C109.867 50.0905 111.546 50.3652 113.804 50.4518C114.846 50.4631 115.817 50.4631 116.716 50.4518C117.616 50.4367 118.466 50.3991 119.264 50.3426L120.977 48.6717C121.334 49.2023 121.767 49.5937 122.275 49.8496C122.764 50.1018 123.359 50.2297 124.062 50.2373H124.747V47.0046C124.149 47.0046 123.671 46.9519 123.321 46.854ZM120.228 46.0713C120.156 46.4514 120.036 46.7976 119.863 47.1099C118.922 47.1513 117.966 47.1852 116.995 47.2078C116.024 47.2266 115.155 47.2379 114.383 47.2379C112.938 47.2379 111.911 47.189 111.297 47.0874C112.14 45.8756 113.107 44.946 114.199 44.3063C115.294 43.6627 116.464 43.3391 117.721 43.3391C118.38 43.3391 118.914 43.4858 119.328 43.7794C119.742 44.0729 120.021 44.4606 120.164 44.946C120.277 45.3186 120.299 45.6912 120.228 46.0713ZM116.739 35.2667L115.087 36.9151L116.739 38.65L118.47 36.9151L116.739 35.2667Z" fill="#F4F4F4"/>
<path d="M138.495 42.4206C137.539 42.334 136.696 42.2173 135.97 42.0668C135.24 41.9163 134.427 41.6829 133.527 41.3706L130.637 40.3846C130.223 40.2265 129.711 40.0798 129.105 39.9368C128.499 39.7938 127.894 39.6997 127.295 39.6583L125.391 42.1421L125.752 42.763C126.441 42.8195 127.111 42.9098 127.766 43.0302C128.424 43.1506 128.951 43.2748 129.35 43.4065L131.363 44.0275C131.838 44.1818 132.316 44.3173 132.801 44.434C133.286 44.5469 133.791 44.656 134.321 44.7538L133.55 45.0737C132.808 45.3898 132.078 45.7097 131.363 46.0371C130.765 46.3118 130.234 46.5075 129.768 46.628C129.305 46.7484 128.812 46.8425 128.292 46.9065C127.769 46.9704 127.152 47.0043 126.441 47.0043H124.062V50.237H127.423C128.466 50.237 129.433 50.0564 130.325 49.7026C131.217 49.3451 132.101 48.7881 132.97 48.0317C133.557 47.5613 134.099 47.1473 134.6 46.7898C135.097 46.4323 135.548 46.1387 135.947 45.9092C136.361 45.6834 136.749 45.5215 137.102 45.4275C137.46 45.3371 137.863 45.2882 138.303 45.2882H138.755L138.86 42.8496L138.495 42.4206ZM131.943 35.353L130.295 37.0239L131.943 38.7363L133.678 37.0239L131.943 35.353Z" fill="#F4F4F4"/>
<path d="M151.034 43.9067C150.684 43.2443 150.131 42.597 149.375 41.9686C149.762 41.5433 150.056 41.1143 150.263 40.6853C150.47 40.2563 150.617 39.8047 150.703 39.3229C150.79 38.845 150.831 38.273 150.831 37.5993V34.0881L147.835 34.901V37.5993C147.835 38.0735 147.817 38.4762 147.779 38.8111C147.745 39.1461 147.677 39.4584 147.576 39.7407C147.478 40.0267 147.32 40.3202 147.105 40.6213L140.937 36.3386L139.567 39.1423L145.179 43.0411L140.403 47.0679L141.814 50.2366H146.868C147.271 50.2366 147.839 50.1576 148.584 49.9995C149.326 49.8452 150.067 49.6571 150.812 49.4426C151.023 48.9307 151.204 48.3813 151.347 47.7942C151.49 47.2109 151.561 46.6803 151.561 46.2098C151.561 45.3405 151.384 44.5728 151.034 43.9067ZM148.103 47.0039C147.707 47.0152 147.327 47.0227 146.955 47.0227H143.252L146.977 44.0685C147.433 44.3545 147.817 44.633 148.121 44.904C148.43 45.1749 148.656 45.4534 148.799 45.7394C148.983 46.0367 149.111 46.4394 149.183 46.9399C148.855 46.9663 148.494 46.9888 148.103 47.0039ZM143.959 33.3167C143.557 33.3317 143.225 33.2565 142.962 33.0909C142.698 32.929 142.522 32.7258 142.435 32.4812C142.522 32.2818 142.65 32.1086 142.823 31.9581C142.992 31.8076 143.188 31.7323 143.402 31.7323C143.628 31.7323 143.831 31.7812 144.012 31.8716C144.189 31.9656 144.313 32.0823 144.384 32.2253H144.471L145.028 30.9608C144.599 30.449 144.057 30.1893 143.402 30.1893C142.872 30.1893 142.416 30.3963 142.029 30.8103C141.645 31.228 141.359 31.7248 141.174 32.3119C141.246 32.6242 141.355 32.9027 141.505 33.1473C141.656 33.3882 141.837 33.5387 142.051 33.5951L140.873 33.7683V35.3075L145.735 34.6451V33.1021L143.959 33.3167Z" fill="#F4F4F4"/>
<path d="M153.424 34.6042L153.443 50.2371H156.442V34.0021L153.424 34.6042Z" fill="#F4F4F4"/>
<path d="M8.10245 68.8396H4.57997L4.44073 68.9788L4.91867 69.9535H6.8869L6.89819 71.0449C6.60088 71.1954 6.27724 71.3196 5.92348 71.4099C5.57349 71.5003 5.22726 71.5454 4.8848 71.5454C4.57621 71.5454 4.25633 71.5153 3.92516 71.4589C3.59398 71.4024 3.30044 71.3347 3.04453 71.2481C2.84884 70.947 2.67949 70.6083 2.54025 70.2395C2.39724 69.867 2.32949 69.5057 2.32949 69.1594C2.32949 68.7417 2.46121 68.3729 2.72465 68.0493C2.99184 67.7294 3.34936 67.4773 3.79344 67.2966C4.24127 67.1122 4.73427 67.0219 5.27242 67.0219C5.6036 67.0219 5.94982 67.0671 6.30734 67.1574C6.66109 67.2515 6.98098 67.3681 7.25946 67.5111L7.61322 65.7047L7.50032 65.5128C7.15786 65.3359 6.74765 65.1967 6.27347 65.0913C5.79553 64.9859 5.31382 64.9332 4.82835 64.9332C4.03429 64.9332 3.29667 65.095 2.61927 65.4262C1.94187 65.7574 1.39995 66.2391 1.00104 66.8751C0.598362 67.5111 0.395142 68.2675 0.395142 69.1482C0.395142 69.7616 0.541915 70.3863 0.827928 71.0223C1.1177 71.6583 1.46393 72.2303 1.87413 72.7384C2.22412 72.8889 2.6682 73.0169 3.21388 73.1185C3.75956 73.2201 4.31277 73.269 4.87351 73.2615C5.50951 73.254 6.12669 73.1712 6.72506 73.0169C7.32343 72.8626 7.85031 72.6481 8.30567 72.3733L8.31696 69.0465L8.10245 68.8396Z" fill="#F4F4F4"/>
<path d="M12.498 67.1684C12.3174 67.1947 12.1555 67.2399 12.0088 67.3076L11.0341 68.67V67.2286L9.34057 67.6012L9.31799 73.1596H11.0341V69.4302L11.941 68.7942C12.291 68.7114 12.5883 68.6888 12.8405 68.7264L13.0324 68.5796V67.2023C12.8593 67.1571 12.6824 67.1458 12.498 67.1684Z" fill="#F4F4F4"/>
<path d="M19.3396 71.7704C18.6208 71.9397 17.9923 72.0226 17.4541 72.0226C17.0138 72.0226 16.6526 71.9736 16.3666 71.8758C16.0843 71.7742 15.8585 71.6161 15.6929 71.3978C15.5236 71.1758 15.4408 70.8936 15.4408 70.5436H19.3735L19.7724 70.1221C19.7724 69.4785 19.6519 68.9328 19.4148 68.4812C19.174 68.0296 18.8353 67.6872 18.395 67.4539C17.9584 67.2205 17.4353 67.0888 16.8294 67.0662C16.3741 67.0587 15.915 67.149 15.4483 67.3334C14.9816 67.5216 14.5602 67.7474 14.1801 68.0221C13.9994 68.5302 13.8677 69.0533 13.7811 69.5914C13.6983 70.1296 13.7096 70.5925 13.8188 70.9876C13.879 71.3978 14.0333 71.7742 14.2892 72.1166C14.5413 72.4629 14.9026 72.7413 15.3693 72.9521C15.8359 73.1666 16.3891 73.272 17.0327 73.272C17.5332 73.272 18.0412 73.2231 18.5568 73.1252L18.76 73.1026L19.6369 71.8607L19.5428 71.7365C19.4826 71.7516 19.4149 71.7629 19.3396 71.7704ZM15.4408 69.1699C15.4784 68.9818 15.5273 68.7898 15.5913 68.6017C15.7343 68.5038 15.9074 68.4173 16.1106 68.3458C16.3176 68.2743 16.5359 68.2366 16.773 68.2366C17.1719 68.2366 17.488 68.3571 17.7138 68.5941C17.9434 68.835 18.0638 69.185 18.0789 69.6479H15.373C15.3806 69.5162 15.4031 69.3581 15.4408 69.1699Z" fill="#F4F4F4"/>
<path d="M26.023 71.7704C25.3004 71.9397 24.672 72.0226 24.1338 72.0226C23.6973 72.0226 23.3322 71.9736 23.05 71.8758C22.764 71.7742 22.5419 71.6161 22.3726 71.3978C22.207 71.1758 22.1242 70.8936 22.1242 70.5436H26.0569L26.452 70.1221C26.452 69.4785 26.3354 68.9328 26.0945 68.4812C25.8574 68.0296 25.5187 67.6872 25.0784 67.4539C24.6381 67.2205 24.115 67.0888 23.5091 67.0662C23.0537 67.0587 22.5946 67.149 22.128 67.3334C21.6651 67.5216 21.2398 67.7474 20.8635 68.0221C20.6791 68.5302 20.5473 69.0533 20.4646 69.5914C20.3818 70.1296 20.3931 70.5925 20.4984 70.9876C20.5586 71.3978 20.7167 71.7742 20.9688 72.1166C21.2247 72.4629 21.5823 72.7413 22.0489 72.9521C22.5156 73.1666 23.0688 73.272 23.7161 73.272C24.2128 73.272 24.7209 73.2231 25.2365 73.1252L25.4435 73.1026L26.3165 71.8607L26.2262 71.7365C26.166 71.7516 26.0983 71.7629 26.023 71.7704ZM22.1242 69.1699C22.1618 68.9818 22.2107 68.7898 22.271 68.6017C22.414 68.5038 22.5908 68.4173 22.7941 68.3458C22.9973 68.2743 23.2193 68.2366 23.4526 68.2366C23.8553 68.2366 24.1677 68.3571 24.3972 68.5941C24.623 68.835 24.7435 69.185 24.7585 69.6479H22.0565C22.064 69.5162 22.0866 69.3581 22.1242 69.1699Z" fill="#F4F4F4"/>
<path d="M32.975 67.6345C32.7793 67.4915 32.561 67.3749 32.3239 67.2883C32.083 67.2018 31.797 67.1378 31.4583 67.1001C31.1234 67.0625 30.732 67.0512 30.2842 67.0663L29.1589 68.6469L29.0799 68.5904V67.1942L27.3074 67.7136V73.1591H29.0799L29.0686 69.0797L29.9982 68.5114C30.2879 68.4963 30.5213 68.5039 30.7057 68.5377C30.8863 68.5716 31.0782 68.6469 31.2852 68.7598C31.3229 69.2377 31.3417 69.5802 31.3417 69.7834V73.1591H33.1142V69.5915C33.1217 69.0307 33.0766 68.3797 32.975 67.6345Z" fill="#F4F4F4"/>
<path d="M42.4998 69.6037C42.2025 69.2838 41.7509 69.0618 41.145 68.9338V68.8397C41.6229 68.6817 41.9917 68.4671 42.2476 68.2C42.5073 67.929 42.6352 67.5903 42.6352 67.1801C42.6352 66.371 42.3229 65.7914 41.6906 65.4414C41.4347 65.2458 41.1073 65.1215 40.7084 65.0726C40.3095 65.0237 39.8842 65.0463 39.4326 65.1366L36.7946 65.6823V73.1713H39.4703C39.5493 73.1713 39.6283 73.1675 39.7036 73.16C40.3321 73.16 40.8702 73.1374 41.3181 73.0923C41.7659 73.0471 42.1272 72.9643 42.4094 72.8514C42.56 72.5428 42.6879 72.2117 42.7895 71.8617C42.8912 71.5155 42.9438 71.1918 42.9438 70.8983C42.9438 70.3526 42.7933 69.9198 42.4998 69.6037ZM38.4655 66.6946L39.4552 66.4764C39.5982 66.4312 39.7412 66.4199 39.8805 66.4387C40.0197 66.4575 40.1477 66.4952 40.2606 66.5554C40.4337 66.6231 40.5692 66.7322 40.6633 66.879C40.7573 67.0296 40.8063 67.2027 40.8063 67.4097C40.8063 67.7333 40.7197 67.9854 40.5504 68.1586C40.381 68.3317 40.1213 68.422 39.7714 68.422H38.4655V66.6946ZM41.0622 71.2784C41.0283 71.4628 40.9869 71.6434 40.9417 71.8165C40.731 71.873 40.5014 71.9181 40.2568 71.9558C40.0084 71.9934 39.7714 72.0122 39.5456 72.0122H38.4655V69.4531H39.6246C40.11 69.4531 40.4789 69.5698 40.731 69.7956C40.9869 70.0214 41.1111 70.3488 41.1111 70.7741C41.1111 70.9246 41.096 71.094 41.0622 71.2784Z" fill="#F4F4F4"/>
<path d="M47.1585 67.1684C46.9741 67.1947 46.8123 67.2399 46.6693 67.3076L45.6908 68.67V67.2286L43.9973 67.6012L43.9747 73.1596H45.6908V69.4302L46.6015 68.7942C46.9478 68.7114 47.2488 68.6888 47.4972 68.7264L47.6929 68.5796V67.2023C47.516 67.1571 47.3391 67.1458 47.1585 67.1684Z" fill="#F4F4F4"/>
<path d="M49.556 64.5564L48.4985 65.6139L49.556 66.6714L50.6022 65.6139L49.556 64.5564ZM48.6792 67.774V73.1594H50.4291V67.2284L48.6792 67.774Z" fill="#F4F4F4"/>
<path d="M55.9081 65.0904V68.2818C55.7124 67.928 55.4302 67.642 55.0651 67.4312C54.7039 67.2205 54.3012 67.1076 53.8609 67.1001C53.2926 67.1076 52.8147 67.2882 52.4195 67.642C52.0244 67.992 51.7459 68.4473 51.5765 69.0006C51.4109 69.5538 51.3658 70.1333 51.441 70.7392C51.4862 71.0704 51.5765 71.4129 51.7158 71.7666C51.8512 72.1166 52.0131 72.4591 52.205 72.7827C52.4609 72.8956 52.7356 72.9935 53.0329 73.0725C53.3265 73.1515 53.5899 73.1929 53.8157 73.1929C54.3087 73.1929 54.7227 73.0649 55.0538 72.8053C55.3888 72.5494 55.6597 72.1881 55.8742 71.7252H55.9646V72.6134C55.9872 72.779 56.0511 72.9107 56.1565 73.0123C56.2656 73.1101 56.4049 73.159 56.578 73.159H57.6694L57.6807 64.7141L55.9081 65.0904ZM55.9081 70.886C55.9081 70.9914 55.9006 71.0817 55.8893 71.1532C55.878 71.2247 55.8705 71.2811 55.863 71.3301C55.72 71.5333 55.5318 71.6951 55.306 71.8155C55.0764 71.9397 54.828 71.9999 54.5571 71.9999C54.3501 71.9999 54.1506 71.9698 53.9587 71.9096C53.7668 71.8494 53.5937 71.7704 53.4431 71.68C53.3679 71.4693 53.3039 71.2285 53.2587 70.9575C53.2136 70.6903 53.191 70.4269 53.191 70.1709C53.191 69.7908 53.2587 69.4559 53.398 69.1699C53.5335 68.8801 53.7216 68.6732 53.9662 68.5452C54.2071 68.4173 54.4818 68.3909 54.7942 68.4662C54.9673 68.4737 55.1404 68.5301 55.3097 68.6355C55.4829 68.7409 55.6221 68.8914 55.7312 69.0909C55.8404 69.2866 55.9044 69.5124 55.9194 69.772C55.9269 69.8925 55.9307 70.0543 55.9307 70.2613C55.9307 70.4645 55.9232 70.6715 55.9081 70.886Z" fill="#F4F4F4"/>
<path d="M63.3412 67.5213L63.3638 68.5788H63.2471C62.916 68.0933 62.5848 67.7396 62.2536 67.5175C61.9262 67.2917 61.5348 67.1788 61.0907 67.1788C60.5978 67.1788 60.1574 67.2955 59.766 67.5288C59.3747 67.7584 59.0698 68.082 58.8516 68.4997C58.6333 68.9137 58.5204 69.3954 58.5204 69.9411C58.5204 70.3212 58.5957 70.7239 58.7424 71.1529C58.8892 71.5782 59.0924 71.9884 59.3521 72.3722H59.3634C59.6644 72.4588 59.973 72.534 60.2816 72.6056C60.594 72.6771 60.9139 72.7109 61.2488 72.7034C61.6891 72.6959 62.0654 72.5943 62.3778 72.4023C62.6939 72.2104 62.931 71.9394 63.0891 71.5894L63.0665 72.4174C63.0439 72.7749 62.9574 73.0571 62.8068 73.2604C62.6525 73.4636 62.4343 73.6066 62.1482 73.6932C61.8585 73.776 61.4558 73.8173 60.944 73.8173C60.6617 73.8173 60.3945 73.7948 60.1424 73.7534C59.8865 73.712 59.6118 73.6555 59.3182 73.5765L59.1564 73.7157L59.9881 74.9539C60.1461 74.999 60.3607 75.0442 60.6279 75.0969C60.8988 75.1458 61.166 75.1646 61.4294 75.1571C62.4757 75.1345 63.3149 74.8786 63.9434 74.3894C64.5718 73.9001 64.8842 73.1889 64.8842 72.248V67.2165L63.3412 67.5213ZM62.9649 70.818C62.852 71.0663 62.6902 71.2545 62.4757 71.3787C62.2649 71.5029 62.0128 71.5669 61.7268 71.5669C61.3768 71.5669 61.0192 71.5029 60.6467 71.3749L60.5902 71.3524C60.5225 71.1303 60.4698 70.8895 60.4322 70.6223C60.4096 70.5018 60.3908 70.3814 60.372 70.2647C60.3569 70.1481 60.3494 70.039 60.3381 69.9411C60.3381 69.64 60.3983 69.3728 60.515 69.147C60.6316 68.9175 60.801 68.7444 61.0155 68.6164C61.23 68.4922 61.4784 68.432 61.7606 68.432C61.9939 68.432 62.2197 68.5035 62.4305 68.6465C62.6412 68.7895 62.8143 68.9777 62.9423 69.2073C63.0703 69.4406 63.1342 69.6739 63.1342 69.9072C63.1342 70.2648 63.0778 70.5658 62.9649 70.818Z" fill="#F4F4F4"/>
<path d="M71.4881 71.7704C70.7655 71.9397 70.1371 72.0226 69.5989 72.0226C69.1623 72.0226 68.8011 71.9736 68.5151 71.8758C68.229 71.7742 68.007 71.6161 67.8377 71.3978C67.6721 71.1758 67.5893 70.8936 67.5893 70.5436H71.522L71.9171 70.1221C71.9171 69.4785 71.8004 68.9328 71.5596 68.4812C71.3225 68.0296 70.9838 67.6872 70.5435 67.4539C70.1032 67.2205 69.5801 67.0888 68.9742 67.0662C68.5226 67.0587 68.0597 67.149 67.593 67.3334C67.1302 67.5216 66.7049 67.7474 66.3286 68.0221C66.1442 68.5302 66.0124 69.0533 65.9296 69.5914C65.8469 70.1296 65.8581 70.5925 65.9635 70.9876C66.0237 71.3978 66.1818 71.7742 66.4339 72.1166C66.6898 72.4629 67.0474 72.7413 67.514 72.9521C67.9807 73.1666 68.5376 73.272 69.1812 73.272C69.6817 73.272 70.186 73.2231 70.7015 73.1252L70.9085 73.1026L71.7816 71.8607L71.6913 71.7365C71.6311 71.7516 71.5634 71.7629 71.4881 71.7704ZM67.5893 69.1699C67.6269 68.9818 67.6758 68.7898 67.7361 68.6017C67.8791 68.5038 68.0559 68.4173 68.2591 68.3458C68.4624 68.2743 68.6844 68.2366 68.9177 68.2366C69.3204 68.2366 69.6328 68.3571 69.8623 68.5941C70.0881 68.835 70.2086 69.185 70.2236 69.6479H67.5215C67.5291 69.5162 67.5516 69.3581 67.5893 69.1699Z" fill="#F4F4F4"/>
<path d="M80.0983 71.4322C79.4925 71.4849 78.9618 71.4849 78.5027 71.4322C78.0436 71.3795 77.6973 71.3193 77.464 71.2478H77.4527C77.2457 70.9166 77.0726 70.5629 76.9296 70.194C76.7866 69.8215 76.7151 69.479 76.7151 69.1704C76.7151 68.5194 76.9861 68 77.5318 67.6124C78.0774 67.2285 78.8113 67.0329 79.7371 67.0329C80.0908 67.0329 80.4295 67.0667 80.7532 67.1307C81.0768 67.1947 81.3666 67.2963 81.6338 67.4318L82.0214 65.6705L81.8709 65.4071C81.5171 65.2716 81.1144 65.1587 80.6628 65.0722C80.2112 64.9856 79.7597 64.9442 79.3043 64.9442C78.4726 64.9442 77.7086 65.106 77.0199 65.4297C76.3313 65.7571 75.7818 66.235 75.3716 66.8673C74.9652 67.4995 74.7582 68.2635 74.7582 69.1591C74.7582 69.7123 74.92 70.3258 75.2361 71.0032C75.556 71.6843 75.9474 72.3241 76.4178 72.93L76.6097 72.9865C77.0275 73.0956 77.4941 73.1821 78.0097 73.2536C78.5253 73.3251 79.1312 73.3251 79.8312 73.2536C80.5349 73.1821 81.2161 72.9827 81.8822 72.659L82.0214 71.1462L81.7918 70.9768C81.2687 71.2252 80.7042 71.3795 80.0983 71.4322Z" fill="#F4F4F4"/>
<path d="M88.7924 68.5458C88.5214 68.0754 88.1413 67.7103 87.6521 67.4544C87.1629 67.1985 86.6134 67.0668 86 67.0668C85.3678 67.0668 84.8108 67.1985 84.3291 67.4582C83.8436 67.7216 83.4635 68.0866 83.1926 68.5571C82.9178 69.0275 82.7823 69.5694 82.7823 70.1828C82.7823 70.4914 82.8313 70.8565 82.9291 71.2742C83.027 71.6882 83.1399 72.057 83.2603 72.3731C83.599 72.6403 84.0092 72.8623 84.4871 73.0392C84.9651 73.2161 85.4581 73.3026 85.9624 73.2951C86.572 73.2951 87.1177 73.1671 87.6069 72.9075C88.0962 72.6516 88.4838 72.2865 88.7698 71.8124C89.0596 71.3382 89.2026 70.7925 89.2026 70.1715C89.2026 69.5581 89.0671 69.0162 88.7924 68.5458ZM87.208 71.1124C87.0914 71.3871 86.9258 71.5978 86.7075 71.7484C86.493 71.9027 86.2484 71.9779 85.9774 71.9779C85.778 71.9855 85.5747 71.9591 85.3602 71.9027C85.1495 71.8462 84.9576 71.7672 84.7807 71.6693C84.7581 71.579 84.7355 71.4736 84.7092 71.3532C84.6828 71.229 84.6603 71.1011 84.6452 70.9656C84.6226 70.8226 84.6076 70.6758 84.5963 70.5328C84.585 70.3898 84.5775 70.2618 84.5775 70.1489C84.5775 69.7538 84.6301 69.4302 84.7355 69.1743C84.8447 68.9221 85.0027 68.7264 85.2135 68.5909C85.4242 68.4555 85.6876 68.3839 86 68.3839C86.2559 68.3839 86.4892 68.4592 86.7037 68.6022C86.9145 68.7452 87.0801 68.9522 87.2043 69.2194C87.3247 69.4904 87.3849 69.8065 87.3849 70.1715C87.3849 70.5253 87.3247 70.8414 87.208 71.1124Z" fill="#F4F4F4"/>
<path d="M95.7352 67.6345C95.5395 67.4915 95.3212 67.3749 95.0841 67.2883C94.8433 67.2018 94.5573 67.1378 94.2186 67.1001C93.8836 67.0625 93.4885 67.0512 93.0444 67.0663L91.9192 68.6469L91.8402 68.5904V67.1942L90.0676 67.7136V73.1591H91.8402L91.8289 69.0797L92.7584 68.5114C93.0482 68.4963 93.2815 68.5039 93.4621 68.5377C93.6466 68.5716 93.8385 68.6469 94.0417 68.7598C94.0793 69.2377 94.0982 69.5802 94.0982 69.7834V73.1591H95.8744V69.5915C95.8782 69.0307 95.8331 68.3797 95.7352 67.6345Z" fill="#F4F4F4"/>
<path d="M99.7927 71.8761C99.6647 71.8761 99.5443 71.861 99.4352 71.8384C99.326 71.8159 99.232 71.7857 99.1567 71.7481L99.1454 71.6578C99.1379 71.5825 99.1303 71.4884 99.119 71.3793C99.1078 71.2702 99.1002 71.161 99.1002 71.0557V68.3987H100.384V67.217H99.1002V65.8735L97.339 66.2386V67.217H96.5901V68.3987H97.339V71.3078C97.339 71.5637 97.3653 71.8347 97.418 72.1169C97.4707 72.4029 97.5384 72.6588 97.625 72.8846C97.8282 72.9975 98.054 73.0954 98.2986 73.1706C98.547 73.2459 98.7841 73.2835 99.0099 73.2835C99.2207 73.2835 99.4615 73.2685 99.7325 73.2421C99.9997 73.2158 100.222 73.1782 100.395 73.1255V71.7707C100.184 71.8384 99.9846 71.8761 99.7927 71.8761Z" fill="#F4F4F4"/>
<path d="M104.519 67.1684C104.338 67.1947 104.177 67.2399 104.034 67.3076L103.055 68.67V67.2286L101.362 67.6012L101.339 73.1596H103.055V69.4302L103.962 68.7942C104.312 68.7114 104.613 68.6888 104.862 68.7264L105.054 68.5796V67.2023C104.88 67.1571 104.704 67.1458 104.519 67.1684Z" fill="#F4F4F4"/>
<path d="M110.872 68.1461C110.677 67.7999 110.398 67.5327 110.033 67.3521C109.668 67.1677 109.243 67.0774 108.75 67.0774C108.242 67.0698 107.737 67.1225 107.244 67.2392C106.748 67.3521 106.334 67.5101 106.01 67.7134L105.988 67.8865L106.943 68.6805C106.981 68.6429 107.071 68.6015 107.214 68.5564C107.677 68.4133 108.087 68.3569 108.441 68.3832C108.784 68.4171 109.043 68.5262 109.224 68.7219C109.408 68.9139 109.499 69.1811 109.499 69.5198V69.7493H108.705C108.129 69.7493 107.617 69.8171 107.169 69.9601C106.721 70.0993 106.371 70.3063 106.119 70.5773C105.863 70.852 105.739 71.1832 105.739 71.5783C105.739 71.7665 105.777 71.9885 105.852 72.2444C105.927 72.4966 106.018 72.7374 106.123 72.9632C106.548 73.1401 106.981 73.2417 107.418 73.2718C107.594 73.2793 107.786 73.268 107.997 73.2417C108.212 73.2154 108.419 73.1664 108.622 73.0949C108.829 73.0234 108.998 72.9218 109.134 72.7939L109.487 72.1353H109.544L109.555 72.489C109.555 72.6847 109.615 72.8465 109.736 72.9707C109.86 73.0949 110.018 73.1589 110.214 73.1589H111.17V69.3956C111.17 68.9101 111.072 68.4961 110.872 68.1461ZM109.499 71.6686C109.333 71.8681 109.134 71.9998 108.908 72.0713C108.682 72.1466 108.426 72.1654 108.148 72.1353C108.046 72.1278 107.952 72.1127 107.858 72.0901C107.76 72.0675 107.681 72.045 107.613 72.0224C107.598 72.0149 107.583 72.0073 107.568 71.9998C107.553 71.9923 107.538 71.9885 107.523 71.9885C107.459 71.7589 107.429 71.5783 107.429 71.4428C107.429 71.1606 107.546 70.9611 107.771 70.8407C107.997 70.7203 108.309 70.6563 108.705 70.6563H109.499V71.6686Z" fill="#F4F4F4"/>
<path d="M116.724 71.8274C116.446 71.8989 116.145 71.9403 115.828 71.9554C115.561 71.9629 115.287 71.9441 115.004 71.8989C114.718 71.8537 114.459 71.7935 114.225 71.7258C114.112 71.4925 114.015 71.2403 113.935 70.9769C113.856 70.7134 113.815 70.4613 113.815 70.228C113.815 69.7275 114.003 69.3361 114.372 69.0576C114.745 68.7753 115.287 68.6474 115.998 68.67C116.261 68.67 116.525 68.6963 116.781 68.749C117.04 68.8017 117.274 68.8732 117.488 68.9635L117.815 67.6125L117.68 67.4205C117.413 67.3152 117.097 67.2286 116.732 67.1646C116.363 67.1006 116.005 67.0668 115.655 67.0668C114.921 67.0668 114.282 67.1985 113.732 67.4657C113.183 67.7291 112.758 68.1017 112.457 68.5796C112.159 69.0576 112.009 69.6033 112.009 70.2167C112.009 70.6984 112.129 71.1763 112.366 71.6468C112.607 72.1172 112.867 72.5311 113.145 72.8849L113.258 73.0204C114.033 73.2048 114.741 73.2951 115.384 73.2951C115.847 73.2951 116.257 73.2537 116.622 73.1709C116.988 73.0881 117.326 72.9602 117.646 72.7946C117.654 72.7871 117.661 72.7833 117.672 72.7795C117.684 72.7758 117.699 72.7682 117.714 72.7607V71.6129L117.59 71.5338C117.292 71.6618 117.006 71.7597 116.724 71.8274Z" fill="#F4F4F4"/>
<path d="M121.601 71.8761C121.469 71.8761 121.352 71.861 121.243 71.8384C121.13 71.8159 121.04 71.7857 120.965 71.7481L120.95 71.6578C120.946 71.5825 120.935 71.4884 120.923 71.3793C120.912 71.2702 120.904 71.161 120.904 71.0557V68.3987H122.192V67.217H120.904V65.8735L119.143 66.2386V67.217H118.394V68.3987H119.143V71.3078C119.143 71.5637 119.17 71.8347 119.226 72.1169C119.279 72.4029 119.346 72.6588 119.429 72.8846C119.632 72.9975 119.858 73.0954 120.107 73.1706C120.351 73.2459 120.588 73.2835 120.814 73.2835C121.029 73.2835 121.269 73.2685 121.537 73.2421C121.808 73.2158 122.026 73.1782 122.203 73.1255V71.7707C121.988 71.8384 121.789 71.8761 121.601 71.8761Z" fill="#F4F4F4"/>
<path d="M124.089 64.5564L123.031 65.6139L124.089 66.6714L125.135 65.6139L124.089 64.5564ZM123.212 67.774V73.1594H124.962V67.2284L123.212 67.774Z" fill="#F4F4F4"/>
<path d="M131.894 67.6345C131.698 67.4915 131.48 67.3749 131.243 67.2883C131.002 67.2018 130.716 67.1378 130.377 67.1001C130.042 67.0625 129.647 67.0512 129.203 67.0663L128.078 68.6469L127.999 68.5904V67.1942L126.226 67.7136V73.1591H127.999L127.987 69.0797L128.917 68.5114C129.207 68.4963 129.44 68.5039 129.621 68.5377C129.805 68.5716 129.997 68.6469 130.2 68.7598C130.242 69.2377 130.26 69.5802 130.26 69.7834V73.1591H132.033V69.5915C132.04 69.0307 131.995 68.3797 131.894 67.6345Z" fill="#F4F4F4"/>
<path d="M137.656 67.5213L137.679 68.5788H137.566C137.234 68.0933 136.899 67.7396 136.572 67.5175C136.241 67.2917 135.853 67.1788 135.405 67.1788C134.916 67.1788 134.472 67.2955 134.085 67.5288C133.693 67.7584 133.388 68.082 133.17 68.4997C132.948 68.9137 132.839 69.3954 132.839 69.9411C132.839 70.3212 132.914 70.7239 133.061 71.1529C133.208 71.5782 133.411 71.9884 133.667 72.3722H133.678C133.983 72.4588 134.288 72.534 134.6 72.6056C134.912 72.6771 135.232 72.7109 135.567 72.7034C136.004 72.6959 136.384 72.5943 136.696 72.4023C137.012 72.2104 137.249 71.9394 137.408 71.5894L137.385 72.4174C137.362 72.7749 137.276 73.0571 137.122 73.2604C136.971 73.4636 136.753 73.6066 136.463 73.6932C136.177 73.776 135.774 73.8173 135.259 73.8173C134.98 73.8173 134.713 73.7948 134.457 73.7534C134.205 73.712 133.93 73.6555 133.633 73.5765L133.475 73.7157L134.303 74.9539C134.465 74.999 134.679 75.0442 134.946 75.0969C135.217 75.1458 135.481 75.1646 135.748 75.1571C136.794 75.1345 137.63 74.8786 138.258 74.3894C138.887 73.9001 139.203 73.1889 139.203 72.248V67.2165L137.656 67.5213ZM137.283 70.818C137.167 71.0663 137.005 71.2545 136.794 71.3787C136.58 71.5029 136.331 71.5669 136.041 71.5669C135.695 71.5669 135.334 71.5029 134.965 71.3749L134.909 71.3524C134.837 71.1303 134.785 70.8895 134.747 70.6223C134.724 70.5018 134.705 70.3814 134.69 70.2647C134.675 70.1481 134.664 70.039 134.657 69.9411C134.657 69.64 134.717 69.3728 134.833 69.147C134.95 68.9175 135.116 68.7444 135.334 68.6164C135.548 68.4922 135.797 68.432 136.079 68.432C136.312 68.432 136.534 68.5035 136.749 68.6465C136.96 68.7895 137.129 68.9777 137.261 69.2073C137.389 69.4406 137.453 69.6739 137.453 69.9072C137.453 70.2648 137.396 70.5658 137.283 70.818Z" fill="#F4F4F4"/>
<path d="M148.249 71.7256H144.678V69.6934H147.192L147.474 68.5569L147.339 68.3763H144.678V66.4419L147.839 66.4645L148.178 65.2264L148.031 65.0344H142.838L142.849 73.1594H148.009L148.374 71.8874L148.249 71.7256Z" fill="#F4F4F4"/>
<path d="M154.053 70.3743C153.872 70.141 153.62 69.9603 153.293 69.8399C152.969 69.7195 152.551 69.6254 152.043 69.5577L151.806 69.5088C151.569 69.4636 151.385 69.4184 151.249 69.3695C151.11 69.3206 151.001 69.2528 150.918 69.1625C150.835 69.076 150.794 68.9631 150.794 68.8276C150.794 68.5943 150.91 68.4249 151.14 68.3158C151.37 68.2104 151.686 68.169 152.088 68.1916C152.438 68.2217 152.792 68.2894 153.157 68.3986C153.522 68.5039 153.82 68.6281 154.053 68.7711L154.181 68.6921V67.6346C153.861 67.4841 153.462 67.3524 152.98 67.2432C152.499 67.1341 152.054 67.0776 151.644 67.0776C151.159 67.0776 150.73 67.1529 150.35 67.2997C149.97 67.4464 149.672 67.6647 149.458 67.9545C149.243 68.2405 149.134 68.583 149.134 68.9781C149.134 69.3394 149.206 69.6329 149.349 69.8587C149.495 70.0808 149.691 70.2501 149.947 70.363C150.199 70.4759 150.534 70.57 150.952 70.6453C151.035 70.6603 151.121 70.6754 151.208 70.6942C151.294 70.7092 151.385 70.7243 151.475 70.7394C151.885 70.7996 152.175 70.8824 152.352 70.9953C152.525 71.1044 152.611 71.27 152.611 71.4883C152.611 71.5635 152.593 71.6463 152.559 71.7366C152.525 71.827 152.487 71.9173 152.442 72.0001C152.175 72.0678 151.938 72.1017 151.727 72.1017C151.355 72.1017 150.971 72.0641 150.572 71.9925C150.173 71.921 149.74 71.7667 149.27 71.5334L149.179 71.6237L149.68 72.8054C150.037 72.9936 150.384 73.1253 150.726 73.1931C151.065 73.2608 151.403 73.2947 151.735 73.2947C152.024 73.2947 152.352 73.2608 152.713 73.1931C153.078 73.1253 153.421 73.0388 153.748 72.9409C153.914 72.6549 154.053 72.3614 154.162 72.0678C154.271 71.7705 154.328 71.5184 154.328 71.3076C154.328 70.92 154.237 70.6076 154.053 70.3743Z" fill="#F4F4F4"/>
<path d="M157.917 71.8761C157.789 71.8761 157.669 71.861 157.559 71.8384C157.45 71.8159 157.356 71.7857 157.281 71.7481L157.27 71.6578C157.262 71.5825 157.251 71.4884 157.243 71.3793C157.228 71.2702 157.224 71.161 157.224 71.0557V68.3987H158.508V67.217H157.224V65.8735L155.463 66.2386V67.217H154.714V68.3987H155.463V71.3078C155.463 71.5637 155.49 71.8347 155.542 72.1169C155.595 72.4029 155.663 72.6588 155.746 72.8846C155.952 72.9975 156.178 73.0954 156.423 73.1706C156.668 73.2459 156.905 73.2835 157.134 73.2835C157.345 73.2835 157.586 73.2685 157.857 73.2421C158.124 73.2158 158.346 73.1782 158.519 73.1255V71.7707C158.308 71.8384 158.105 71.8761 157.917 71.8761Z" fill="#F4F4F4"/>
<path d="M170.531 12.588C171.405 12.4149 172.274 12.2493 173.14 12.095V72.5717C172.27 72.3685 171.401 72.154 170.531 71.9282V12.588Z" fill="#F4F4F4"/>
<path d="M175.506 11.6932V73.092C175.119 73.013 174.731 72.9302 174.343 72.8436V11.8852C174.731 11.8174 175.119 11.7535 175.506 11.6932Z" fill="#F4F4F4"/>
<path d="M195.189 32.9412L187.779 42.5942L195.189 52.2509L202.599 42.5942L195.189 32.9412ZM190.929 42.5942L195.189 37.0433L199.449 42.5942L195.189 48.1451L190.929 42.5942ZM195.189 32.9412L187.779 42.5942L195.189 52.2509L202.599 42.5942L195.189 32.9412ZM190.929 42.5942L195.189 37.0433L199.449 42.5942L195.189 48.1451L190.929 42.5942ZM195.189 32.9412L187.779 42.5942L195.189 52.2509L202.599 42.5942L195.189 32.9412ZM190.929 42.5942L195.189 37.0433L199.449 42.5942L195.189 48.1451L190.929 42.5942ZM195.189 32.9412L187.779 42.5942L195.189 52.2509L202.599 42.5942L195.189 32.9412ZM190.929 42.5942L195.189 37.0433L199.449 42.5942L195.189 48.1451L190.929 42.5942ZM196.152 10.0338L202.599 18.4373H187.779L194.222 10.0413C188.328 10.1053 182.292 10.6171 176.109 11.5956V73.2164C182.149 74.447 188.185 75.0943 194.225 75.1545H194.229C194.869 75.1621 195.509 75.1621 196.149 75.1545H196.152C202.207 75.0981 208.263 74.4583 214.314 73.2277V11.5354C208.406 10.5682 202.354 10.0564 196.152 10.0338ZM213.106 42.9103H202.84L210.009 52.2509H195.189L202.599 61.9038H187.779L195.189 52.2509H180.369L187.538 42.9103H177.268V42.2517H187.515L180.369 32.9412H195.189L187.779 23.2845H202.599L195.189 32.9412H210.009L202.862 42.2517H213.106V42.9103ZM195.189 32.9412L187.779 42.5942L195.189 52.2509L202.599 42.5942L195.189 32.9412ZM190.929 42.5942L195.189 37.0433L199.449 42.5942L195.189 48.1451L190.929 42.5942ZM217.329 12.066V72.5729C218.198 72.3734 219.067 72.1552 219.937 71.9294V12.5891C219.071 12.4047 218.202 12.2278 217.329 12.066ZM214.916 73.1073C215.319 73.0245 215.722 72.9379 216.124 72.8476V11.844C215.722 11.7725 215.319 11.701 214.916 11.6332V73.1073ZM195.189 32.9412L187.779 42.5942L195.189 52.2509L202.599 42.5942L195.189 32.9412ZM190.929 42.5942L195.189 37.0433L199.449 42.5942L195.189 48.1451L190.929 42.5942ZM195.189 32.9412L187.779 42.5942L195.189 52.2509L202.599 42.5942L195.189 32.9412ZM190.929 42.5942L195.189 37.0433L199.449 42.5942L195.189 48.1451L190.929 42.5942ZM195.189 32.9412L187.779 42.5942L195.189 52.2509L202.599 42.5942L195.189 32.9412ZM190.929 42.5942L195.189 37.0433L199.449 42.5942L195.189 48.1451L190.929 42.5942ZM195.189 32.9412L187.779 42.5942L195.189 52.2509L202.599 42.5942L195.189 32.9412ZM190.929 42.5942L195.189 37.0433L199.449 42.5942L195.189 48.1451L190.929 42.5942Z" fill="#F4F4F4"/>
<path d="M202.598 66.7491L196.151 75.1527H196.147C195.507 75.1602 194.868 75.1602 194.228 75.1527H194.224L187.778 66.7491H202.598Z" fill="#F4F4F4"/>
<path d="M219.936 2.75152L220 10.6169C220 10.6169 217.486 10.0449 216.226 9.79648C214.972 9.54057 213.704 9.311 212.443 9.10778C211.171 8.89703 209.903 8.72015 208.631 8.5508C207.359 8.39274 206.091 8.26103 204.811 8.14437C203.539 8.03147 202.264 7.93362 200.984 7.86964C199.712 7.79814 198.436 7.75674 197.157 7.7304C195.877 7.71158 194.598 7.71158 193.318 7.7304C192.039 7.75674 190.759 7.8019 189.48 7.86964C188.2 7.92985 186.932 8.0277 185.652 8.14437C184.38 8.25727 183.104 8.39274 181.832 8.5508C180.56 8.72015 179.292 8.89327 178.031 9.10778C176.759 9.311 175.499 9.54057 174.238 9.79648C172.977 10.0449 170.471 10.6169 170.471 10.6169L170.531 2.71388C170.531 2.71388 171.378 2.49937 172.729 2.22841C172.977 3.48912 173.233 4.74984 173.489 6.01432C174.787 5.75089 176.101 5.52132 177.414 5.29929C178.72 5.08854 180.034 4.90414 181.358 4.73479C181.189 3.45525 181.031 2.18701 180.873 0.907473C182.231 0.738123 183.597 0.59136 184.967 0.46717C185.08 1.7467 185.197 3.03376 185.31 4.3133C186.634 4.18911 187.955 4.09125 189.28 4.02351C190.605 3.95201 191.926 3.91061 193.25 3.88427C193.224 2.60474 193.198 1.31768 193.179 0.0306218C194.556 0.00427843 195.922 0.00427843 197.288 0.0306218C197.27 1.31768 197.243 2.60474 197.228 3.88427C198.553 3.91061 199.874 3.95577 201.199 4.02351C202.523 4.09502 203.844 4.19287 205.158 4.3133C205.27 3.02624 205.387 1.7467 205.511 0.46717C206.87 0.59136 208.236 0.741887 209.606 0.907473C209.436 2.18701 209.278 3.45525 209.12 4.73479C210.434 4.90414 211.747 5.08854 213.064 5.29929C214.378 5.52132 215.684 5.75089 216.99 6.01432C217.245 4.7536 217.75 2.22841 217.75 2.22841L219.936 2.75152Z" fill="#F4F4F4"/>
</svg>
