<svg width="150" height="48" viewBox="0 0 150 48" fill="none" xmlns="http://www.w3.org/2000/svg">
<path d="M6.02982 10.9424C5.67829 10.9424 5.3627 10.8823 5.08045 10.7645C4.7982 10.6468 4.56983 10.4833 4.39535 10.2719C4.39535 11.4855 4.15416 12.5021 3.67177 13.3289C3.18939 14.1532 2.45298 14.6435 1.45998 14.7997C1.33426 14.8093 1.22392 14.8141 1.13155 14.8189C1.03918 14.8238 0.939111 14.8165 0.831344 14.7997L0 13.2808L0.146253 13.0213C0.264284 13.0405 0.356656 13.0501 0.423369 13.0549C0.492648 13.0597 0.564494 13.0573 0.641471 13.0477H0.700485C1.22649 12.9924 1.6396 12.7641 1.94237 12.3652C2.24515 11.9638 2.45042 11.5168 2.56332 11.0241C2.67622 10.5314 2.7301 10.0435 2.7301 9.56047V9.50519C2.7301 9.02212 2.70444 8.5727 2.65056 8.15933C2.59667 7.74355 2.4966 7.18117 2.35035 6.46979L4.07205 6.07324L4.30555 6.21023L4.4672 7.38546C4.55444 7.95985 4.73406 8.3516 5.0086 8.56069C5.28059 8.76978 5.70395 8.87552 6.27871 8.87552V10.94H6.02982V10.9424Z" fill="#6D6E71"/>
<path d="M6.13232 8.89014H8.11868V10.9426H6.13232V8.89014Z" fill="#6D6E71"/>
<path d="M7.99902 8.89014H9.98537V10.9426H7.99902V8.89014Z" fill="#6D6E71"/>
<path d="M9.87256 8.89014H11.8589V10.9426H9.87256V8.89014Z" fill="#6D6E71"/>
<path d="M22.7183 7.72932C22.7183 8.13068 22.826 8.42148 23.039 8.60414C23.252 8.78679 23.583 8.87811 24.032 8.87811V10.9426H23.6368C23.0133 10.9426 22.5027 10.8128 22.105 10.5532C21.7047 10.2937 21.443 9.92597 21.3173 9.45251L20.3397 11.094H19.4647C19.008 11.094 18.6205 10.9786 18.3049 10.7527C17.9893 10.5244 17.7764 10.1975 17.6686 9.76735L17.0117 11.1084H15.9033C15.3567 11.1084 14.9154 10.9786 14.5742 10.7191C14.2329 10.4595 14.0148 10.087 13.9173 9.60392L13.0423 10.945H11.7876V8.88052H13.204C13.2245 8.8709 13.2399 8.85649 13.2553 8.83245C13.2707 8.81082 13.2809 8.78919 13.2912 8.76997C13.399 8.54165 13.4631 8.3614 13.4888 8.22922C13.5119 8.09703 13.5298 7.89035 13.5401 7.60676V7.37363L15.4389 6.93623V7.72932C15.4389 8.15711 15.5081 8.47436 15.6518 8.68104C15.7929 8.88533 16.0136 8.98867 16.3164 8.98867C16.4139 8.98867 16.514 8.98146 16.6166 8.96704C16.7192 8.95262 16.8142 8.943 16.9014 8.93339L17.0913 8.37342C17.1195 8.26287 17.1452 8.14029 17.1631 8.0033C17.1837 7.86631 17.1913 7.74855 17.1913 7.64761V7.37363L19.0747 6.93623V7.72932C19.0747 8.15711 19.144 8.47436 19.2877 8.68104C19.4288 8.88533 19.6443 8.98867 19.9368 8.98867C20.0343 8.98867 20.1318 8.98146 20.2294 8.96704C20.3269 8.95262 20.4141 8.9382 20.4911 8.91897L20.5783 8.75555C20.6861 8.52723 20.7528 8.33016 20.7836 8.16192C20.8118 7.99369 20.8272 7.79902 20.8272 7.58032V6.44594L22.726 6.00854V7.72932H22.7183Z" fill="#6D6E71"/>
<path d="M23.9326 8.89014H25.919V10.9426H23.9326V8.89014Z" fill="#6D6E71"/>
<path d="M25.7988 8.89014H27.7852V10.9426H25.7988V8.89014Z" fill="#6D6E71"/>
<path d="M27.6689 8.89014H29.6553V10.9426H27.6689V8.89014Z" fill="#6D6E71"/>
<path d="M38.183 8.20722C38.2035 8.45236 38.319 8.62299 38.5345 8.71432C38.7475 8.80564 39.1041 8.85612 39.5993 8.86573C39.6584 8.87534 39.7225 8.88015 39.7969 8.88015C39.8713 8.88015 39.9457 8.88015 40.0227 8.88015V10.9446L39.5121 10.9302C38.8219 10.9302 38.2369 10.7932 37.7596 10.5192C37.2823 10.2452 36.9283 9.79341 36.6948 9.16615L36.5767 8.71432C36.4613 8.78642 36.3022 8.88495 36.102 9.00752C35.9019 9.13009 35.6171 9.30073 35.2476 9.51943C34.6626 10.0025 34.0699 10.3582 33.4669 10.5865C32.8639 10.8148 32.207 10.9278 31.4963 10.9278H29.2178V8.87534H30.8394C31.2782 8.87534 31.681 8.84891 32.0505 8.79363C32.42 8.73836 32.8331 8.63501 33.2924 8.4788C33.9929 8.23366 34.4932 8.05581 34.7883 7.94526C35.086 7.8347 35.5504 7.66166 36.1816 7.42614C35.8403 7.36365 35.5119 7.29395 35.1963 7.22185C34.8807 7.14975 34.5651 7.07044 34.2546 6.98873L32.692 6.55132C32.4097 6.46961 32.0531 6.3879 31.6271 6.30619C31.1986 6.22447 30.7701 6.174 30.3416 6.15478L30.1235 5.77265L31.409 4.21289C31.7785 4.26817 32.1839 4.33786 32.6278 4.42438C33.0717 4.5109 33.5156 4.60943 33.9647 4.71758C34.1879 4.77286 34.5574 4.8714 35.0731 5.018C35.2784 5.0925 35.4195 5.14057 35.4965 5.16941C36.061 5.37129 36.5254 5.51789 36.8898 5.61403C37.2541 5.71016 37.6056 5.78466 37.9418 5.83994C38.2779 5.89522 38.6551 5.94088 39.0733 5.97693L39.2914 6.21006L39.2632 7.74097L38.1676 7.86354L38.183 8.20722ZM34.5753 11.8314L35.7582 12.8985L34.5753 13.992L33.4515 12.8985L34.5753 11.8314Z" fill="#6D6E71"/>
<path d="M39.8604 9.06767L39.9784 8.8754C40.348 8.89463 40.8356 8.84416 41.4387 8.72399C41.4387 8.54134 41.4412 8.35147 41.4464 8.14959C41.4515 7.95012 41.454 7.75786 41.454 7.5752L41.4694 0.997297L43.3814 0.641602L43.4969 0.764174V7.5752C43.4969 7.99579 43.4507 8.47164 43.3583 9.00518C43.2659 9.53872 43.1555 10.0386 43.0298 10.5025C42.6012 10.6202 42.1649 10.7236 41.7235 10.8101C41.2795 10.8966 40.9023 10.9399 40.5918 10.9399H39.9194L39.8604 9.06767Z" fill="#6D6E71"/>
<path d="M45.1624 10.9427L45.147 0.959277L47.2052 0.577148V10.9451H45.1624V10.9427Z" fill="#6D6E71"/>
<path d="M57.7341 7.63296C57.7341 7.95261 57.77 8.20015 57.8444 8.378C57.9162 8.55584 58.0368 8.68322 58.201 8.76012C58.3653 8.83703 58.5988 8.87549 58.9015 8.87549V10.9279L58.5064 10.9423C57.6391 10.9423 57.0053 10.7933 56.5999 10.4977C56.1945 10.2021 55.9456 9.71665 55.8481 9.04132L54.7961 10.4352C54.3471 10.5001 53.8519 10.5122 53.3079 10.4761C52.7639 10.4401 52.2508 10.3487 51.7761 10.2021C51.5708 9.87286 51.3989 9.52438 51.2578 9.15667C51.1166 8.78656 51.0474 8.4573 51.0474 8.1641C51.0474 7.55365 51.2116 7.01531 51.5426 6.55147C51.8736 6.08522 52.3688 5.68627 53.0308 5.3474L55.7019 4.37646V3.55692L57.7315 3.09308V7.63296H57.7341ZM53.6004 0L54.7833 1.06707L53.6004 2.17501L52.4766 1.06707L53.6004 0ZM55.7044 5.9242L53.4567 6.70288C53.1052 6.8663 52.8589 7.02732 52.7126 7.18114C52.5664 7.33735 52.4945 7.51039 52.4945 7.70026C52.4945 7.81081 52.5279 7.94059 52.5972 8.08959C52.6664 8.241 52.7537 8.38761 52.8589 8.53421C53.0641 8.55344 53.3438 8.54383 53.6979 8.50778C54.052 8.47173 54.4266 8.40683 54.8141 8.31551C54.9501 8.26023 55.0835 8.18092 55.2144 8.07517C55.3452 7.96943 55.4581 7.83725 55.5505 7.67863C55.6429 7.52001 55.6942 7.35178 55.7044 7.17874V5.9242ZM56.1868 0L57.3697 1.06707L56.1868 2.17501L55.0476 1.06707L56.1868 0Z" fill="#6D6E71"/>
<path d="M58.8267 8.89014H60.813V10.9426H58.8267V8.89014Z" fill="#6D6E71"/>
<path d="M60.7002 8.89014H62.6866V10.9426H60.7002V8.89014Z" fill="#6D6E71"/>
<path d="M62.5664 8.89014H64.5528V10.9426H62.5664V8.89014Z" fill="#6D6E71"/>
<path d="M64.4365 8.89014H66.4229V10.9426H64.4365V8.89014Z" fill="#6D6E71"/>
<path d="M77.2856 7.72932C77.2856 8.13068 77.3934 8.42148 77.6064 8.60414C77.8193 8.78679 78.1504 8.87811 78.5994 8.87811V10.9426H78.2042C77.5807 10.9426 77.0701 10.8128 76.6724 10.5532C76.2721 10.2937 76.0104 9.92597 75.8847 9.45251L74.9071 11.094H74.0321C73.5754 11.094 73.1879 10.9786 72.8723 10.7527C72.5567 10.5244 72.3437 10.1975 72.236 9.76735L71.5791 11.1084H70.4707C69.9241 11.1084 69.4828 10.9786 69.1415 10.7191C68.8003 10.4595 68.5822 10.087 68.4847 9.60392L67.6097 10.945H66.355V8.88052H67.7713C67.7893 8.8709 67.8073 8.85649 67.8227 8.83245C67.8381 8.81082 67.8483 8.78919 67.8586 8.76997C67.9664 8.54165 68.0305 8.3614 68.0562 8.22922C68.0793 8.09703 68.0972 7.89035 68.1075 7.60676V7.37363L70.0062 6.93623V7.72932C70.0062 8.15711 70.0781 8.47436 70.2192 8.68104C70.3603 8.88533 70.581 8.98867 70.8838 8.98867C70.9813 8.98867 71.0813 8.98146 71.184 8.96704C71.2866 8.95262 71.3815 8.943 71.4688 8.93339L71.6587 8.37342C71.6869 8.26287 71.7125 8.14029 71.7305 8.0033C71.751 7.86631 71.7587 7.74855 71.7587 7.64761V7.37363L73.6421 6.93623V7.72932C73.6421 8.15711 73.7139 8.47436 73.8551 8.68104C73.9962 8.88533 74.2117 8.98867 74.5042 8.98867C74.6017 8.98867 74.6992 8.98146 74.7967 8.96704C74.8942 8.95262 74.9815 8.9382 75.0585 8.91897L75.1457 8.75555C75.2535 8.52723 75.3202 8.33016 75.351 8.16192C75.3818 7.99369 75.3946 7.79902 75.3946 7.58032V6.44594L77.2933 6.00854V7.72932H77.2856Z" fill="#6D6E71"/>
<path d="M88.7915 5.86865C88.9275 6.89007 88.966 7.74325 88.907 8.4258C88.8787 8.85359 88.8043 9.25734 88.6889 9.63707C88.5734 10.0144 88.422 10.3653 88.2373 10.6825C87.8857 10.8003 87.5342 10.9036 87.1776 10.9901C86.8209 11.0767 86.5284 11.1199 86.2949 11.1199C85.7484 11.1199 85.266 10.9974 84.8426 10.7498C84.4192 10.5047 84.1575 10.1658 84.0626 9.73801L83.085 11.1199H82.2536C81.7276 11.1199 81.2889 10.9877 80.9399 10.7234C80.5884 10.459 80.3651 10.0817 80.2676 9.58901L79.1592 10.9421H78.1226V8.87762H79.5979C79.6852 8.73101 79.7647 8.56038 79.8314 8.36571C79.8982 8.17104 79.9341 7.97637 79.9341 7.7841L79.9187 7.33228L81.802 6.93573V7.71441C81.802 8.17104 81.8739 8.49789 82.015 8.69977C82.1561 8.90165 82.3819 9.00019 82.695 9.00019L83.2646 8.89204L83.4262 8.4258C83.475 8.30803 83.5083 8.19988 83.5289 8.10374C83.5494 8.00761 83.5571 7.90187 83.5571 7.7817V7.37073L85.4687 6.93332V7.71201C85.4687 8.1398 85.5431 8.46184 85.6945 8.67574C85.8459 8.88963 86.0614 8.99778 86.3436 8.99778C86.4899 8.99778 86.7029 8.95212 86.9851 8.8608C87.1006 8.47867 87.1468 8.08933 87.116 7.69759C87.1057 7.47889 87.0801 7.26499 87.0364 7.0559C86.9928 6.84681 86.9261 6.60407 86.8389 6.33009L88.7915 5.86865Z" fill="#6D6E71"/>
<path d="M97.3026 8.87787V10.9423H96.5149C96.3891 11.6898 96.1505 12.3194 95.799 12.8289C95.4475 13.3384 94.9984 13.7182 94.4493 13.9633C93.9002 14.2084 93.2742 14.3046 92.5737 14.2517C92.2709 14.2517 91.9656 14.206 91.6551 14.1147L90.2387 12.4324L90.4004 12.1464C90.8084 12.2377 91.1676 12.3026 91.4729 12.3435C91.7783 12.3843 92.0887 12.406 92.3992 12.406C93.2177 12.406 93.8643 12.2834 94.3416 12.0358C94.8188 11.7907 95.119 11.3942 95.2473 10.8462L93.4358 11.0793C92.4531 11.1514 91.6654 10.9303 91.0701 10.416C90.4748 9.90169 90.0822 9.24558 89.8872 8.45248C90.2285 7.47673 90.6903 6.64999 91.2753 5.96984C91.8604 5.2897 92.5224 4.95083 93.2613 4.95083C94.2056 4.95083 94.9522 5.30893 95.5039 6.02512C96.053 6.74131 96.402 7.69062 96.5482 8.87787H97.3026ZM94.7624 9.02688C94.8702 8.66157 94.8547 8.30348 94.7188 7.95259C94.5828 7.6017 94.3595 7.3133 94.0465 7.08499C93.736 6.85667 93.3845 6.74372 92.9945 6.74372C92.7328 6.74372 92.4736 6.83504 92.2196 7.01769C91.9656 7.20035 91.7654 7.41905 91.614 7.6738C91.4627 7.92856 91.3882 8.17129 91.3882 8.39961C91.6012 8.58226 91.8629 8.73367 92.1683 8.85864C92.4762 8.98121 92.8226 9.0437 93.2126 9.0437L94.7624 9.02688ZM91.4934 4.40528V3.39348L92.312 3.28292C92.1554 3.25648 92.0271 3.16756 91.9245 3.01615C91.8219 2.86474 91.7475 2.69411 91.6987 2.50424C91.8347 2.1125 92.0323 1.78084 92.2889 1.51167C92.5455 1.24249 92.8559 1.10791 93.2151 1.10791C93.4384 1.10791 93.6462 1.15117 93.8361 1.23769C94.026 1.32421 94.1799 1.44437 94.2954 1.60059L93.9156 2.40811H93.8566C93.8079 2.31678 93.7258 2.24228 93.6077 2.1822C93.4897 2.12211 93.3588 2.09328 93.2126 2.09328C93.0458 2.09328 92.9072 2.14134 92.7969 2.23748C92.684 2.33361 92.5993 2.44416 92.5403 2.57154C92.5993 2.72775 92.7174 2.85753 92.897 2.96087C93.0766 3.06662 93.3127 3.11469 93.6052 3.10508L94.7726 2.96808V3.95345L91.4934 4.40528Z" fill="#6D6E71"/>
<path d="M97.1431 8.89014H99.1294V10.9426H97.1431V8.89014Z" fill="#6D6E71"/>
<path d="M106.782 8.31577C106.782 8.8445 106.661 9.32036 106.425 9.74575C106.186 10.1687 105.84 10.5004 105.388 10.7359C104.937 10.9738 104.393 11.0916 103.762 11.0916C103.382 11.0916 103.015 11.0243 102.658 10.8921C102.302 10.76 101.983 10.5773 101.701 10.3442C101.419 10.1111 101.191 9.8539 101.016 9.57271L100.228 10.9402H98.9736V8.87575H99.4996C99.7229 8.80365 99.9102 8.68828 100.062 8.53447C100.213 8.38066 100.339 8.20521 100.441 8.01535C100.544 7.82309 100.647 7.59237 100.754 7.31839C100.803 7.20784 100.849 7.10449 100.893 7.00355C100.937 6.90261 100.983 6.79927 101.031 6.68872C101.324 6.07827 101.709 5.62645 102.184 5.33564C102.658 5.04484 103.205 4.91266 103.818 4.9391L105.876 4.96553L106.782 5.8139V8.31577ZM103.992 9.00072C104.383 9.00072 104.703 8.92381 104.957 8.76759C105.211 8.61138 105.386 8.39027 105.483 8.09706C105.386 7.84952 105.273 7.49143 105.147 7.01557C104.649 6.94347 104.247 6.90502 103.936 6.90502C103.626 6.90502 103.351 6.94347 103.118 7.02038C102.884 7.09728 102.666 7.23427 102.468 7.43134C102.268 7.62842 102.063 7.91682 101.847 8.29895C102.168 8.52727 102.517 8.7003 102.892 8.81806C103.264 8.94063 103.631 9.00072 103.992 9.00072Z" fill="#6D6E71"/>
<path d="M7.5195 32.26C6.16728 32.26 5.05112 32.1422 4.17615 31.9043C3.30119 31.6664 2.63663 31.2554 2.18246 30.6666C1.73087 30.0778 1.52816 29.2654 1.57692 28.2248L3.10874 27.213L3.54752 27.4317L3.53212 27.4581C3.46284 27.6768 3.42179 27.8811 3.40896 28.0662C3.39356 28.2536 3.41666 28.4387 3.47567 28.6189C3.63989 29.1837 4.06069 29.5779 4.73038 29.8014C5.40265 30.0249 6.33149 30.1355 7.5195 30.1355C8.24051 30.1355 8.95126 30.0922 9.65175 30.0057C10.3522 29.9191 10.9706 29.811 11.5069 29.6836C11.5941 29.2727 11.6377 28.8689 11.6377 28.4675C11.6377 28.1479 11.6044 27.8018 11.5351 27.4293C11.5146 27.3212 11.4658 27.0784 11.3889 26.7035L13.2876 26.2661C13.4518 27.2322 13.5262 28.0614 13.5057 28.7559C13.5057 29.1933 13.4339 29.6548 13.2876 30.1378C13.1414 30.6209 12.9617 31.0631 12.7462 31.4645C11.9662 31.6832 11.1117 31.8707 10.1752 32.0245C9.24121 32.1831 8.35598 32.26 7.5195 32.26ZM6.13135 24.6006L7.31423 25.6677L6.13135 26.7756L5.0075 25.6677L6.13135 24.6006ZM8.68698 24.6006L9.85445 25.6677L8.68698 26.7756L7.54773 25.6677L8.68698 24.6006Z" fill="#6D6E71"/>
<path d="M14.6902 30.0584L17.9463 27.4868L14.1206 24.997L15.0546 23.2065L19.2601 25.9415C19.4063 25.7492 19.5141 25.5642 19.5808 25.3815C19.6501 25.1989 19.6963 25.0018 19.7194 24.7855C19.7425 24.5716 19.7553 24.3145 19.7553 24.014V22.2909L21.8003 21.7717V24.014C21.8003 24.4418 21.7721 24.8095 21.7131 25.1148C21.654 25.42 21.554 25.7108 21.4128 25.9824C21.2717 26.2563 21.069 26.5303 20.8073 26.8019C21.323 27.2032 21.7002 27.6166 21.9389 28.0396C22.1775 28.4626 22.2955 28.9529 22.2955 29.5104C22.2955 29.8109 22.2468 30.1473 22.1493 30.5223C22.0518 30.8972 21.9312 31.2481 21.7849 31.5749C21.2794 31.7119 20.7714 31.8297 20.2659 31.9306C19.7604 32.0315 19.3704 32.082 19.0984 32.082H15.6524L14.6902 30.0584ZM19.1574 30.0296C19.4115 30.0296 19.6706 30.0248 19.9375 30.0152C20.2043 30.0055 20.4506 29.9935 20.6739 29.9743C20.6251 29.6546 20.5379 29.3999 20.4122 29.2076C20.3147 29.025 20.1607 28.8471 19.9529 28.6741C19.7425 28.5011 19.4833 28.3232 19.1728 28.1405L16.6326 30.0272H19.1574V30.0296Z" fill="#6D6E71"/>
<path d="M29.4219 33.327C29.2551 33.7548 28.9934 34.1369 28.6342 34.4686C28.2749 34.8002 27.8541 35.0502 27.3717 35.2136C26.8894 35.377 26.3813 35.4371 25.845 35.3914C25.5525 35.3914 25.26 35.3554 24.9701 35.2809L23.4665 33.7211V33.2837C23.8565 33.3654 24.2388 33.4279 24.6134 33.4688C24.988 33.5096 25.3421 33.5313 25.6731 33.5313C26.2171 33.5313 26.6867 33.4784 27.0818 33.3726C27.4769 33.2669 27.7926 33.0987 28.0312 32.8679C28.2698 32.6348 28.4315 32.3272 28.5213 31.9451C27.713 32.1373 27.1152 32.2455 26.7251 32.2719C25.7706 32.344 24.9957 32.1157 24.3953 31.5894C23.7975 31.0606 23.3844 30.3949 23.1611 29.5922C23.5306 28.6165 24.0104 27.7921 24.6006 27.1168C25.1882 26.4414 25.8348 26.105 26.5353 26.105C27.1382 26.105 27.6771 26.2684 28.1492 26.5977C28.6213 26.9269 29.0036 27.3956 29.2962 28.006C29.4912 28.3617 29.6451 28.8496 29.7555 29.4696C29.8684 30.0897 29.8991 30.7482 29.8504 31.4452C29.7991 32.1421 29.6579 32.7694 29.4219 33.327ZM24.6776 29.5249C24.9213 29.6811 25.2318 29.8205 25.6115 29.9479C25.9913 30.0753 26.3941 30.157 26.8226 30.193C27.0177 30.2195 27.2178 30.2315 27.4205 30.2267C27.6258 30.2219 27.8336 30.1978 28.0491 30.1522C28.1364 29.7052 28.1082 29.311 27.9619 28.9697C27.8156 28.6285 27.5898 28.3641 27.2819 28.1766C26.974 27.9892 26.6379 27.8955 26.2684 27.8955C26.0144 27.8955 25.7681 27.982 25.5243 28.155C25.2805 28.3281 25.083 28.542 24.9316 28.7967C24.7828 29.0539 24.6981 29.2966 24.6776 29.5249Z" fill="#6D6E71"/>
<path d="M33.1471 29.9624C33.8759 29.9984 34.402 30.0176 34.7254 30.0176V32.0821H33.9965C33.4704 32.0821 32.988 32.0605 32.5517 32.0148C32.1128 31.9691 31.7484 31.9139 31.4559 31.8514C31.3583 31.3779 31.2736 30.8564 31.1992 30.2844C31.1248 29.7148 31.0889 29.1933 31.0889 28.7174V22.726L33.1188 22.4255L33.1342 27.8282C33.1342 28.1022 33.1368 28.4266 33.1419 28.7992C33.1445 29.1741 33.1471 29.561 33.1471 29.9624Z" fill="#6D6E71"/>
<path d="M34.5913 30.0295H36.5777V32.082H34.5913V30.0295Z" fill="#6D6E71"/>
<path d="M44.1967 32.082H43.3064C42.2928 32.082 41.2998 31.8129 40.3274 31.2745L39.2907 32.0412C39.0085 32.0676 38.6339 32.082 38.1669 32.082C37.6999 32.082 37.238 32.082 36.7787 32.082H36.4862L36.458 30.0176H37.0867C37.4074 30.0176 37.7025 30.0176 37.9693 30.0176C38.2362 30.0176 38.4671 30.0128 38.6621 30.0032C38.4568 29.8301 38.2208 29.5465 37.9539 29.1548C37.6871 28.763 37.4792 28.417 37.333 28.1165C37.5767 27.3427 37.9719 26.6866 38.5235 26.153C39.0726 25.6195 39.7526 25.3527 40.5609 25.3527C41.3383 25.3527 41.9978 25.6243 42.5315 26.1675C43.0677 26.7106 43.4603 27.3691 43.7143 28.143C43.5886 28.5443 43.4141 28.9144 43.196 29.2509C42.9779 29.5874 42.7316 29.8301 42.4596 29.9767C42.7136 29.9959 42.9754 30.0056 43.2473 30.0104C43.5193 30.0152 43.8349 30.0176 44.1967 30.0176V32.082ZM38.7083 22.2356L39.8758 23.3027L38.7083 24.3962L37.5844 23.3027L38.7083 22.2356ZM40.6635 29.8397C41.0048 29.7676 41.3152 29.6138 41.5975 29.3807C41.8797 29.1476 42.1081 28.8904 42.2826 28.6092C42.0773 28.2343 41.8181 27.9195 41.5025 27.6599C41.1869 27.4003 40.8431 27.2706 40.4736 27.2706C40.1041 27.2706 39.7757 27.3955 39.4883 27.6455C39.2009 27.8954 38.97 28.1983 38.7955 28.554C39.0008 28.8544 39.2625 29.1259 39.5833 29.3687C39.904 29.609 40.2658 29.7652 40.6635 29.8397ZM41.4102 22.2356L42.5776 23.3027L41.4102 24.3962L40.2709 23.3027L41.4102 22.2356Z" fill="#6D6E71"/>
<path d="M52.4067 29.8254C52.5221 29.8975 52.6325 29.948 52.7351 29.9768C52.8377 30.0056 52.9609 30.0177 53.1072 30.0177H53.1944V32.0821H52.8891C52.3348 32.0821 51.8755 31.9547 51.5163 31.7C51.1571 31.4452 50.8543 31.0535 50.6106 30.5248L49.9255 32.2071H48.173C47.5597 32.2071 47.0363 32.0389 46.6026 31.7C46.169 31.3635 45.8945 30.9574 45.779 30.4839L45.0041 32.0845H43.6313V30.0201C43.7006 30.0201 43.7673 30.0201 43.8366 30.0201C43.9033 30.0201 43.9675 30.0153 44.0265 30.0056C44.26 29.996 44.4447 29.9552 44.5807 29.8831C44.7167 29.811 44.8373 29.6956 44.9374 29.5418C45.04 29.388 45.1632 29.1501 45.3094 28.8304L45.6892 27.8451C45.9612 27.261 46.3435 26.8188 46.8361 26.5184C47.3288 26.218 47.8753 26.081 48.4783 26.1075L50.1436 26.1483L51.9679 29.1837C52.0834 29.4649 52.2296 29.6788 52.4067 29.8254ZM49.6304 28.0878L48.4321 28.0614C48.1293 28.071 47.8625 28.131 47.629 28.2464C47.3955 28.3594 47.1954 28.5084 47.0311 28.691C46.8644 28.8737 46.7386 29.0611 46.6514 29.251C46.8156 29.525 47.0773 29.7413 47.4314 29.8999C47.7855 30.0585 48.173 30.145 48.5912 30.1522L49.6868 30.1667L50.2411 29.6187L49.6304 28.0878Z" fill="#6D6E71"/>
<path d="M56.7412 28.8253C56.7412 29.282 56.831 29.5944 57.0106 29.7626C57.1902 29.9308 57.5135 30.015 57.9805 30.015V32.0794H57.5725C56.8438 32.0794 56.2665 31.9328 55.8431 31.642C55.4197 31.3512 55.158 30.9306 55.0631 30.3827L54.2446 32.0794H53.0181L53.0335 30.015H54.319C54.319 30.0246 54.3523 29.9549 54.4216 29.8107C54.4909 29.6641 54.5499 29.4958 54.6038 29.306C54.6577 29.1137 54.6833 28.9407 54.6833 28.7869V22.221L56.7412 21.7139V28.8253Z" fill="#6D6E71"/>
<path d="M57.9087 30.2076L58.0267 30.0153C58.3963 30.0345 58.8839 29.9841 59.487 29.8639C59.487 29.6812 59.4896 29.4914 59.4947 29.2895C59.4998 29.09 59.5024 28.8977 59.5024 28.7151L59.5178 22.1372L61.4297 21.7815L61.5452 21.9041V28.7151C61.5452 29.1357 61.499 29.6115 61.4066 30.1451C61.3142 30.6786 61.2039 31.1785 61.0781 31.6423C60.6495 31.7601 60.2133 31.8635 59.7719 31.95C59.3279 32.0365 58.9506 32.0797 58.6401 32.0797H57.9677L57.9087 30.2076Z" fill="#6D6E71"/>
<path d="M70.613 32.082C70.2614 32.082 69.9458 32.022 69.6636 31.9042C69.3813 31.7864 69.153 31.623 68.9759 31.4115C68.9759 32.6252 68.7347 33.6418 68.2524 34.4685C67.77 35.2929 67.0336 35.7832 66.0406 35.9394C65.9148 35.949 65.8045 35.9538 65.7121 35.9586C65.6197 35.9634 65.5197 35.9562 65.4119 35.9394L64.5806 34.4205L64.7268 34.1609C64.8423 34.1801 64.9372 34.1897 65.0039 34.1946C65.0732 34.1994 65.1451 34.197 65.222 34.1874H65.2811C65.8071 34.1321 66.2202 33.9038 66.5229 33.5048C66.8231 33.1034 67.031 32.6564 67.1439 32.1637C67.2568 31.6711 67.3107 31.1832 67.3107 30.7001V30.6448C67.3107 30.1618 67.285 29.7123 67.2311 29.299C67.1772 28.8832 67.0772 28.3208 66.9309 27.6094L68.6552 27.2129L68.8887 27.3499L69.0503 28.5251C69.1376 29.0995 69.3172 29.4912 69.5892 29.7003C69.8611 29.9094 70.2845 30.0152 70.8593 30.0152V32.0796H70.613V32.082Z" fill="#6D6E71"/>
<path d="M83.4317 29.5921C83.6268 29.7483 83.8423 29.8565 84.0809 29.9213C84.3196 29.9862 84.6428 30.0175 85.0508 30.0175V32.0819H84.6275C84.1322 32.0819 83.7089 32.0002 83.365 31.8368C83.0186 31.6734 82.7261 31.421 82.4824 31.0845L81.3149 32.1516C80.7684 32.1877 80.191 32.2117 79.5778 32.2189C78.9645 32.2285 78.3025 32.2285 77.5918 32.2189C76.0548 32.1636 74.9079 31.9882 74.1535 31.6926C73.3992 31.397 72.945 30.9235 72.7885 30.277L71.9417 32.0819H70.687V30.0175H72.1752C72.2419 29.8348 72.3009 29.6474 72.3497 29.4503C72.3985 29.2556 72.4216 29.0754 72.4216 28.9095V28.4721L74.0996 28.0612V28.8134C74.0996 29.0225 74.1458 29.2051 74.2382 29.3614C74.3306 29.5152 74.4742 29.6522 74.6693 29.7723C75.2722 28.6043 75.9727 27.6742 76.7707 26.9821C77.8125 26.0712 78.9902 25.6146 80.3039 25.6146C80.9659 25.6146 81.551 25.7564 82.0564 26.0376C82.5619 26.3211 82.9545 26.6985 83.2316 27.1719C83.5087 27.6454 83.6473 28.1693 83.6473 28.7437C83.6524 29.0994 83.578 29.383 83.4317 29.5921ZM75.8829 30.0703C76.3012 30.1352 77.0016 30.1665 77.9844 30.1665C78.5104 30.1665 79.1031 30.1593 79.7651 30.1448C80.4271 30.1304 81.0788 30.1112 81.7229 30.0824C81.8383 29.8829 81.923 29.6618 81.9718 29.419C82.0205 29.1763 82.0051 28.9384 81.9281 28.7004C81.8306 28.3904 81.6408 28.1429 81.3585 27.9554C81.0763 27.768 80.7119 27.6742 80.2629 27.6742C79.4059 27.6742 78.6053 27.8785 77.8612 28.2895C77.1171 28.7028 76.4577 29.2965 75.8829 30.0703ZM80.7735 23.5741L79.5906 24.6821L78.4668 23.5741L79.5906 22.5215L80.7735 23.5741Z" fill="#6D6E71"/>
<path d="M94.6763 27.3641L94.6019 28.9238H94.2966C93.9938 28.9238 93.7218 28.9527 93.4781 29.0128C93.2343 29.0728 92.9726 29.1738 92.6903 29.3204C92.4184 29.467 92.1104 29.6544 91.7717 29.8804C91.4305 30.1087 91.061 30.3731 90.6633 30.6735C90.0706 31.1565 89.4676 31.5122 88.8595 31.7405C88.2514 31.9689 87.5919 32.0818 86.8812 32.0818H84.5898V30.0174H86.2115C86.699 30.0174 87.1198 29.9957 87.4739 29.9549C87.828 29.914 88.1641 29.8539 88.4823 29.777C88.7979 29.7001 89.1622 29.5751 89.5702 29.4021C90.0577 29.193 90.553 28.9863 91.0584 28.7869L91.5844 28.5826C91.2252 28.5201 90.8788 28.4504 90.5478 28.3783C90.2168 28.3062 89.891 28.2197 89.5702 28.1187L88.1975 27.7222C87.9255 27.6405 87.5637 27.5612 87.1172 27.4818C86.6682 27.4049 86.2115 27.3473 85.7445 27.3112L85.4956 26.9147L86.7939 25.3285C87.2019 25.3549 87.615 25.415 88.0281 25.5063C88.4412 25.5976 88.7902 25.6938 89.0724 25.7923L91.043 26.422C91.6563 26.6215 92.2105 26.7705 92.7083 26.8666C93.2035 26.9627 93.7783 27.0372 94.43 27.0925L94.6763 27.3641ZM89.9602 22.5767L91.1431 23.6437L89.9602 24.7372L88.8364 23.6437L89.9602 22.5767Z" fill="#6D6E71"/>
<path d="M95.7288 30.0585L98.9849 27.4869L95.1592 24.9971L96.0932 23.2066L100.299 25.9416C100.445 25.7493 100.553 25.5642 100.619 25.3816C100.686 25.1989 100.732 25.0019 100.758 24.7856C100.781 24.5717 100.794 24.3145 100.794 24.0141V22.2909L102.839 21.7718V24.0141C102.839 24.4419 102.811 24.8096 102.752 25.1148C102.693 25.4201 102.593 25.7108 102.451 25.9824C102.31 26.2564 102.108 26.5304 101.846 26.802C102.362 27.2033 102.739 27.6167 102.977 28.0397C103.216 28.4627 103.334 28.9529 103.334 29.5105C103.334 29.8109 103.285 30.1474 103.188 30.5223C103.09 30.8972 102.97 31.2481 102.823 31.575C102.318 31.712 101.81 31.8297 101.304 31.9307C100.799 32.0316 100.409 32.0821 100.137 32.0821H96.691L95.7288 30.0585ZM96.0495 22.5481V21.5627L96.8527 21.4545C96.7064 21.4185 96.5832 21.3224 96.4806 21.1662C96.378 21.0123 96.3036 20.8345 96.2548 20.6326C96.3805 20.2577 96.5755 19.9405 96.8398 19.6761C97.1015 19.4117 97.4146 19.2795 97.7738 19.2795C98.2203 19.2795 98.5923 19.443 98.8823 19.7722L98.5025 20.5797H98.4435C98.3948 20.4884 98.3101 20.4139 98.1869 20.3538C98.0638 20.2938 97.9252 20.2649 97.7712 20.2649C97.625 20.2649 97.4941 20.313 97.3761 20.4091C97.2581 20.5052 97.1708 20.6158 97.1144 20.7432C97.1734 20.8994 97.2914 21.0292 97.471 21.1325C97.6507 21.2383 97.8764 21.2863 98.151 21.2767L99.3621 21.1397V22.1251L96.0495 22.5481ZM100.196 30.0296C100.45 30.0296 100.709 30.0248 100.976 30.0152C101.243 30.0056 101.489 29.9936 101.712 29.9743C101.664 29.6547 101.576 29.4 101.451 29.2077C101.353 29.025 101.199 28.8472 100.991 28.6742C100.781 28.5011 100.522 28.3233 100.211 28.1406L97.6712 30.0272H100.196V30.0296Z" fill="#6D6E71"/>
<path d="M104.618 32.0821L104.603 22.0987L106.661 21.7166V32.0845H104.618V32.0821Z" fill="#6D6E71"/>
<path d="M3.1228 43.9619H5.52446L5.67072 44.0917L5.66302 46.2187C5.35255 46.3941 4.99332 46.5287 4.58534 46.6296C4.17737 46.7282 3.75657 46.781 3.32293 46.7859C2.94062 46.7907 2.56343 46.7594 2.19138 46.6945C1.81933 46.6296 1.51399 46.5479 1.27793 46.4518C0.998244 46.1273 0.762183 45.762 0.56461 45.3559C0.367037 44.9497 0.269531 44.5508 0.269531 44.159C0.269531 43.5966 0.405525 43.1136 0.680074 42.7074C0.954624 42.3012 1.32155 41.9936 1.7834 41.7821C2.24526 41.5706 2.74818 41.4673 3.28958 41.4673C3.62058 41.4673 3.949 41.5009 4.27231 41.5682C4.59817 41.6355 4.87786 41.7244 5.10879 41.8374L5.18577 41.96L4.94457 43.1136C4.7547 43.0222 4.5366 42.9477 4.29284 42.8877C4.04908 42.83 3.81558 42.8011 3.58722 42.8011C3.2203 42.8011 2.88417 42.8588 2.57883 42.9742C2.27349 43.0895 2.03229 43.2506 1.85012 43.4572C1.6705 43.6639 1.57813 43.8995 1.57813 44.1638C1.57813 44.3873 1.62688 44.6157 1.72182 44.8536C1.81676 45.0915 1.93222 45.3054 2.06565 45.5001C2.24013 45.5529 2.44027 45.5986 2.66607 45.6347C2.89187 45.6707 3.10996 45.6899 3.32037 45.6899C3.55386 45.6899 3.78992 45.6611 4.02855 45.6034C4.26974 45.5457 4.49041 45.4688 4.69055 45.3703L4.68285 44.6733H3.34346L3.01759 44.0485L3.1228 43.9619Z" fill="#6D6E71"/>
<path d="M8.88565 43.7961L8.75476 43.8898C8.58538 43.8658 8.38008 43.8802 8.14141 43.9331L7.52035 44.3393V46.7186H6.3501L6.3655 43.1689L7.52035 42.9285V43.849L8.1876 42.979C8.28512 42.9357 8.39805 42.9069 8.52123 42.8925C8.64442 42.878 8.7676 42.8853 8.88565 42.9141V43.7961Z" fill="#6D6E71"/>
<path d="M11.9009 45.9948C12.2679 45.9948 12.6965 45.9419 13.1866 45.8362C13.238 45.8314 13.2842 45.8242 13.3252 45.8146L13.3868 45.8939L12.7889 46.6846L12.6503 46.699C12.2987 46.7615 11.9522 46.7927 11.6109 46.7927C11.1721 46.7927 10.7922 46.7254 10.4766 46.5884C10.1584 46.4538 9.91456 46.276 9.74004 46.0549C9.56553 45.8338 9.46031 45.5935 9.41925 45.3339C9.34739 45.0816 9.33969 44.7859 9.39615 44.4423C9.45261 44.0986 9.54244 43.7645 9.66819 43.4401C9.92739 43.2646 10.2148 43.1204 10.533 43.0003C10.8513 42.8825 11.1644 42.8248 11.4749 42.8296C11.8881 42.844 12.2448 42.9258 12.5451 43.0772C12.8453 43.2262 13.0763 43.4473 13.238 43.7333C13.3996 44.0217 13.4818 44.3702 13.4818 44.7811L13.2097 45.0503H10.5279C10.5279 45.2738 10.5844 45.4541 10.6973 45.5959C10.8102 45.7352 10.9642 45.8386 11.1592 45.9011C11.3543 45.9636 11.6006 45.9948 11.9009 45.9948ZM10.6306 43.8102C10.5895 43.9304 10.5561 44.0529 10.5305 44.1731C10.5048 44.2933 10.4894 44.3966 10.4843 44.4783H12.3295C12.3192 44.1827 12.2371 43.9592 12.0805 43.8078C11.9266 43.6564 11.711 43.5795 11.4364 43.5795C11.2773 43.5795 11.1259 43.6035 10.9873 43.6492C10.8461 43.6924 10.7281 43.7477 10.6306 43.8102Z" fill="#6D6E71"/>
<path d="M16.4561 45.9948C16.8231 45.9948 17.2516 45.9419 17.7418 45.8362C17.7931 45.8314 17.8393 45.8242 17.8804 45.8146L17.942 45.8939L17.344 46.6846L17.2055 46.699C16.8539 46.7615 16.5074 46.7927 16.1661 46.7927C15.7272 46.7927 15.3474 46.7254 15.0318 46.5884C14.7135 46.4538 14.4697 46.276 14.2952 46.0549C14.1207 45.8338 14.0155 45.5935 13.9744 45.3339C13.9026 45.0816 13.8949 44.7859 13.9513 44.4423C14.0078 44.0986 14.0976 43.7645 14.2234 43.4401C14.4826 43.2646 14.77 43.1204 15.0882 43.0003C15.4064 42.8825 15.7195 42.8248 16.0301 42.8296C16.4432 42.844 16.8 42.9258 17.1002 43.0772C17.4005 43.2262 17.6315 43.4473 17.7931 43.7333C17.9548 44.0217 18.0369 44.3702 18.0369 44.7811L17.7649 45.0503H15.0857C15.0857 45.2738 15.1421 45.4541 15.255 45.5959C15.3679 45.7352 15.5219 45.8386 15.717 45.9011C15.9094 45.9636 16.1584 45.9948 16.4561 45.9948ZM15.1857 43.8102C15.1447 43.9304 15.1113 44.0529 15.0857 44.1731C15.06 44.2933 15.0446 44.3966 15.0395 44.4783H16.8847C16.8744 44.1827 16.7923 43.9592 16.6357 43.8078C16.4817 43.6564 16.2662 43.5795 15.9916 43.5795C15.8325 43.5795 15.681 43.6035 15.5425 43.6492C15.4039 43.6924 15.2833 43.7477 15.1857 43.8102Z" fill="#6D6E71"/>
<path d="M22.4832 43.1927C22.5499 43.6661 22.5807 44.0819 22.5756 44.44V46.7184H21.3668V44.5626C21.3668 44.4328 21.354 44.2141 21.3283 43.9089C21.1898 43.8368 21.0563 43.7887 20.9331 43.7671C20.8099 43.7454 20.6483 43.7382 20.4532 43.7502L19.8168 44.1131L19.8245 46.7184H18.6157V43.2431L19.8245 42.9091V43.8007L19.8784 43.8367L20.6457 42.8274C20.9511 42.8178 21.218 42.825 21.449 42.849C21.6799 42.873 21.875 42.9139 22.0367 42.9692C22.1983 43.0244 22.3497 43.1013 22.4832 43.1927Z" fill="#6D6E71"/>
<path d="M25.0884 41.945L26.8871 41.5965C27.1975 41.5389 27.4875 41.5244 27.7595 41.5557C28.0314 41.5869 28.2547 41.6662 28.4292 41.7912C28.8577 42.0147 29.0732 42.3848 29.0732 42.9016C29.0732 43.1635 28.986 43.3798 28.8089 43.5504C28.6319 43.7211 28.383 43.8581 28.0571 43.9614V44.0191C28.4702 44.1008 28.7781 44.245 28.9783 44.4469C29.1784 44.6512 29.281 44.9252 29.281 45.2736C29.281 45.4635 29.2477 45.6678 29.1758 45.8913C29.1065 46.1148 29.0193 46.3239 28.9167 46.5234C28.7268 46.5955 28.4779 46.6459 28.1726 46.6748C27.8672 46.7036 27.5003 46.718 27.0718 46.718C27.0205 46.7228 26.9666 46.7252 26.9127 46.7252C26.8588 46.7252 26.805 46.7252 26.7536 46.7252H25.0884V41.945ZM27.118 43.6946C27.3566 43.6946 27.5311 43.6394 27.6491 43.5288C27.7646 43.4183 27.8236 43.2572 27.8236 43.0506C27.8236 42.9208 27.7903 42.8078 27.7261 42.7141C27.662 42.6204 27.5696 42.5507 27.4516 42.5074C27.3746 42.469 27.2873 42.4425 27.1924 42.4305C27.0975 42.4185 27 42.4257 26.9025 42.4569L26.2276 42.5939V43.6971H27.118V43.6946ZM26.964 45.9874C27.118 45.9874 27.2796 45.9754 27.449 45.9514C27.6158 45.9273 27.7723 45.8985 27.9185 45.8648C27.9493 45.7543 27.9776 45.6389 28.0006 45.5212C28.0237 45.4034 28.034 45.2953 28.034 45.1991C28.034 44.9276 27.9468 44.7209 27.7749 44.5743C27.6029 44.4301 27.3489 44.3556 27.0205 44.3556H26.2302V45.9874H26.964Z" fill="#6D6E71"/>
<path d="M32.518 43.7961L32.3871 43.8898C32.2151 43.8658 32.0124 43.8802 31.7737 43.9331L31.1527 44.3393V46.7186H29.9824L29.9978 43.1689L31.1527 42.9285V43.849L31.8199 42.979C31.9174 42.9357 32.0304 42.9069 32.1535 42.8925C32.2767 42.878 32.3999 42.8853 32.518 42.9141V43.7961Z" fill="#6D6E71"/>
<path d="M33.789 42.5775L33.0679 41.9021L33.789 41.2268L34.5025 41.9021L33.789 42.5775ZM33.1911 46.7208H34.3844V42.9332L33.1911 43.2816V46.7208Z" fill="#6D6E71"/>
<path d="M36.7232 42.8514C37.0234 42.8562 37.2954 42.9259 37.5443 43.0628C37.7932 43.1974 37.9831 43.3801 38.1165 43.6084V41.568L39.325 41.3276L39.3173 46.7183H38.5732C38.4552 46.7183 38.3577 46.6871 38.2859 46.6246C38.214 46.5621 38.1704 46.478 38.155 46.3698C38.155 46.3554 38.155 46.341 38.155 46.329C38.155 46.3169 38.155 46.3025 38.155 46.2881V45.8026H38.0934C37.9497 46.0982 37.7624 46.3266 37.5366 46.4924C37.3083 46.6558 37.0286 46.7399 36.6924 46.7399C36.5385 46.7399 36.3589 46.7135 36.1587 46.663C35.956 46.6126 35.7687 46.5501 35.5942 46.478C35.466 46.2689 35.3531 46.0526 35.2607 45.8291C35.1683 45.6032 35.1067 45.3845 35.0734 45.173C35.0221 44.786 35.0528 44.4159 35.1657 44.0626C35.2786 43.7093 35.4711 43.4209 35.7379 43.195C36.0099 42.9715 36.3358 42.8562 36.7232 42.8514ZM36.2665 44.8125C36.2665 44.9759 36.2819 45.1441 36.3127 45.3172C36.3435 45.4878 36.3845 45.6416 36.4359 45.7786C36.5385 45.8363 36.6565 45.8843 36.7874 45.9228C36.9182 45.9613 37.0542 45.9805 37.1954 45.9805C37.3801 45.9805 37.552 45.942 37.706 45.8651C37.8599 45.7882 37.9882 45.6849 38.0857 45.5527C38.0909 45.5239 38.0985 45.4854 38.1037 45.4397C38.1114 45.3941 38.1165 45.3364 38.1165 45.2691C38.1268 45.1345 38.1319 44.9999 38.1319 44.8702C38.1319 44.7404 38.1293 44.6346 38.1242 44.5577C38.1139 44.3943 38.0703 44.2477 37.9959 44.1227C37.9215 43.9977 37.8266 43.8992 37.7085 43.8319C37.5931 43.7646 37.475 43.7286 37.357 43.7238C37.144 43.6757 36.9567 43.6925 36.7925 43.7742C36.6283 43.856 36.4974 43.9905 36.4051 44.1732C36.3127 44.3558 36.2665 44.5697 36.2665 44.8125Z" fill="#6D6E71"/>
<path d="M44.2399 42.9255V46.1411C44.2399 46.742 44.0244 47.1962 43.5959 47.5086C43.1674 47.8211 42.5977 47.9845 41.8844 47.9989C41.7048 48.0037 41.5226 47.9893 41.3379 47.958C41.1532 47.9268 41.0095 47.8956 40.8991 47.8667L40.3346 47.076L40.4424 46.9895C40.6451 47.0376 40.8299 47.076 41.0043 47.1025C41.1762 47.1289 41.3584 47.1433 41.5509 47.1433C41.9024 47.1433 42.1769 47.1169 42.3719 47.064C42.567 47.0111 42.7183 46.9198 42.821 46.7876C42.9236 46.6579 42.9826 46.4776 42.998 46.2517L43.0134 45.723C42.9056 45.9465 42.744 46.1195 42.5285 46.2421C42.3129 46.3646 42.0563 46.4295 41.7587 46.4343C41.5303 46.4391 41.3122 46.4199 41.0993 46.3719C40.8863 46.3262 40.6785 46.2757 40.4706 46.2228H40.4629C40.2884 45.9753 40.1499 45.7157 40.0498 45.4418C39.9498 45.1678 39.8984 44.9106 39.8984 44.6679C39.8984 44.3194 39.9728 44.0118 40.1242 43.7474C40.273 43.4806 40.4809 43.274 40.7477 43.1274C41.0146 42.9808 41.3148 42.9062 41.6509 42.9062C41.9563 42.9062 42.2206 42.9784 42.4438 43.1201C42.6696 43.2619 42.8954 43.4903 43.1212 43.7979H43.1982L43.1828 43.1226L44.2399 42.9255ZM43.0468 44.6439C43.0468 44.4949 43.0032 44.3458 42.9159 44.1968C42.8287 44.0502 42.7106 43.9301 42.567 43.8387C42.4233 43.7474 42.2693 43.7018 42.1102 43.7018C41.9204 43.7018 41.751 43.7426 41.6022 43.8219C41.4559 43.9012 41.3405 44.0142 41.2609 44.1584C41.1814 44.3026 41.1403 44.4732 41.1403 44.6655C41.1455 44.728 41.1532 44.7977 41.1634 44.8722C41.1737 44.9467 41.1865 45.0236 41.2019 45.1005C41.2276 45.2687 41.2635 45.4249 41.3097 45.5643L41.3482 45.5787C41.6022 45.6605 41.8459 45.7013 42.0846 45.7013C42.2796 45.7013 42.4515 45.6605 42.5952 45.5812C42.7389 45.5018 42.8518 45.3817 42.9287 45.2231C43.0083 45.0644 43.0468 44.8722 43.0468 44.6439Z" fill="#6D6E71"/>
<path d="M47.4531 45.9948C47.8201 45.9948 48.2487 45.9419 48.7389 45.8362C48.7902 45.8314 48.8364 45.8242 48.8775 45.8146L48.9391 45.8939L48.3411 46.6846L48.2025 46.699C47.8509 46.7615 47.5045 46.7927 47.1631 46.7927C46.7243 46.7927 46.3445 46.7254 46.0288 46.5884C45.7106 46.4538 45.4668 46.276 45.2923 46.0549C45.1203 45.8338 45.0126 45.5935 44.9715 45.3339C44.8996 45.0816 44.8919 44.7859 44.9484 44.4423C45.0049 44.0986 45.0947 43.7645 45.2204 43.4401C45.4796 43.2646 45.7671 43.1204 46.0853 43.0003C46.4035 42.8825 46.7166 42.8248 47.0271 42.8296C47.4403 42.844 47.797 42.9258 48.0973 43.0772C48.3976 43.2262 48.6285 43.4473 48.7902 43.7333C48.9519 44.0217 49.034 44.3702 49.034 44.7811L48.762 45.0503H46.0801C46.0801 45.2738 46.1366 45.4541 46.2495 45.5959C46.3624 45.7352 46.5164 45.8386 46.7115 45.9011C46.9091 45.9636 47.1554 45.9948 47.4531 45.9948ZM46.1828 43.8102C46.1417 43.9304 46.1084 44.0529 46.0827 44.1731C46.0571 44.2933 46.0417 44.3966 46.0365 44.4783H47.8817C47.8715 44.1827 47.7893 43.9592 47.6328 43.8078C47.4788 43.6564 47.2632 43.5795 46.9886 43.5795C46.8295 43.5795 46.6781 43.6035 46.5395 43.6492C46.4009 43.6924 46.2803 43.7477 46.1828 43.8102Z" fill="#6D6E71"/>
<path d="M52.8074 45.4996H52.8151C52.9742 45.5429 53.2102 45.5813 53.5233 45.615C53.8363 45.6486 54.1981 45.6486 54.6112 45.615C55.0243 45.5813 55.4092 45.4852 55.7659 45.3242L55.9198 45.4323L55.8274 46.3985C55.3733 46.6052 54.9063 46.7325 54.429 46.7782C53.9518 46.8239 53.5361 46.8239 53.1846 46.7782C52.833 46.7325 52.5149 46.6748 52.2326 46.6076L52.1018 46.5715C51.781 46.1846 51.5142 45.7736 51.2961 45.341C51.078 44.9084 50.9702 44.5143 50.9702 44.161C50.9702 43.5914 51.1088 43.1035 51.3885 42.6997C51.6681 42.296 52.0428 41.9908 52.5123 41.7817C52.9819 41.575 53.5027 41.4692 54.0698 41.4692C54.3803 41.4692 54.6882 41.4981 54.9961 41.5533C55.304 41.6086 55.5785 41.6807 55.8223 41.7672L55.9224 41.9331L55.6581 43.0578C55.4759 42.9713 55.2783 42.9064 55.0577 42.8656C54.837 42.8247 54.6061 42.8031 54.3649 42.8031C53.7337 42.8031 53.2333 42.9257 52.8613 43.1732C52.4892 43.4207 52.3045 43.75 52.3045 44.1682C52.3045 44.3676 52.3532 44.584 52.4507 44.8219C52.5482 45.0622 52.6663 45.2881 52.8074 45.4996Z" fill="#6D6E71"/>
<path d="M56.7696 46.2183C56.6875 46.014 56.6131 45.7809 56.5464 45.5141C56.4796 45.2473 56.4463 45.0166 56.4463 44.8171C56.4463 44.4254 56.5387 44.0793 56.726 43.7789C56.9133 43.4785 57.1699 43.2454 57.5009 43.0795C57.8319 42.9137 58.2116 42.8296 58.6401 42.8296C59.0584 42.8296 59.433 42.9113 59.7665 43.0771C60.1001 43.2406 60.3593 43.4737 60.544 43.7741C60.7313 44.0745 60.8237 44.4206 60.8237 44.8123C60.8237 45.2089 60.7262 45.5598 60.5286 45.8602C60.331 46.163 60.0668 46.3961 59.7358 46.5596C59.4022 46.723 59.0301 46.8071 58.617 46.8071C58.2706 46.8119 57.9345 46.7566 57.6086 46.6437C57.2828 46.5307 57.0005 46.3889 56.7696 46.2183ZM59.5818 44.8123C59.5818 44.5792 59.5407 44.3773 59.4586 44.2067C59.3765 44.0361 59.2611 43.9039 59.1174 43.8102C58.9737 43.7188 58.812 43.6732 58.6376 43.6732C58.4246 43.6732 58.2475 43.7164 58.1038 43.8029C57.9602 43.8895 57.8498 44.0144 57.778 44.1755C57.7061 44.3389 57.6702 44.5456 57.6702 44.7955C57.6702 44.8676 57.6753 44.9493 57.683 45.0431C57.6907 45.1344 57.7036 45.2257 57.719 45.3194C57.7292 45.406 57.7446 45.4901 57.7626 45.567C57.7805 45.6439 57.7985 45.7112 57.8139 45.7713C57.9319 45.8338 58.0654 45.8842 58.209 45.9203C58.3527 45.9563 58.4939 45.9731 58.6273 45.9683C58.812 45.9683 58.9788 45.9203 59.1276 45.8241C59.2739 45.728 59.3894 45.591 59.4689 45.418C59.5407 45.2401 59.5818 45.0382 59.5818 44.8123Z" fill="#6D6E71"/>
<path d="M65.2732 43.1927C65.34 43.6661 65.3708 44.0819 65.3656 44.44V46.7184H64.1569V44.5626C64.1569 44.4328 64.1441 44.2141 64.1184 43.9089C63.9798 43.8368 63.8464 43.7887 63.7232 43.7671C63.6 43.7454 63.4383 43.7382 63.2433 43.7502L62.6068 44.1131L62.6145 46.7184H61.4058V43.2431L62.6145 42.9091V43.8007L62.6684 43.8367L63.4357 42.8274C63.7411 42.8178 64.008 42.825 64.239 42.849C64.47 42.873 64.665 42.9139 64.8267 42.9692C64.9884 43.0244 65.1398 43.1013 65.2732 43.1927Z" fill="#6D6E71"/>
<path d="M66.3676 43.6805H65.8569V42.9259H66.3676V42.301L67.5687 42.0679V42.9235H68.4438V43.6781H67.5687V45.3773C67.5687 45.4446 67.5713 45.5142 67.5815 45.5839C67.5892 45.6536 67.5969 45.7137 67.5995 45.7618L67.6072 45.8195C67.6585 45.8435 67.7227 45.8627 67.7971 45.8772C67.8715 45.8916 67.9536 45.8988 68.0409 45.8988C68.1692 45.8988 68.3078 45.8771 68.4515 45.8339V46.6967C68.3335 46.7303 68.182 46.7568 67.9973 46.7736C67.8125 46.7904 67.6482 46.8 67.5045 46.8C67.3505 46.8 67.1889 46.776 67.0195 46.7279C66.8527 46.6799 66.6987 46.6198 66.5575 46.5453C66.5011 46.4011 66.4549 46.2377 66.419 46.055C66.383 45.8723 66.3651 45.6993 66.3651 45.5359V43.6805H66.3676Z" fill="#6D6E71"/>
<path d="M71.6269 43.7961L71.496 43.8898C71.324 43.8658 71.1213 43.8802 70.8826 43.9331L70.2616 44.3393V46.7186H69.0913L69.1067 43.1689L70.2616 42.9285V43.849L70.9288 42.979C71.0263 42.9357 71.1393 42.9069 71.2624 42.8925C71.3856 42.878 71.5088 42.8853 71.6269 42.9141V43.7961Z" fill="#6D6E71"/>
<path d="M74.1463 42.8369C74.4825 42.8369 74.7751 42.8946 75.0215 43.0123C75.2704 43.1277 75.4603 43.2983 75.5938 43.5194C75.7272 43.7429 75.7965 44.0073 75.7965 44.3173V46.7183H75.1446C75.0112 46.7183 74.9008 46.6774 74.8187 46.5981C74.7366 46.5188 74.6955 46.4154 74.6955 46.2905L74.6878 46.0645H74.6493L74.4081 46.4851C74.3157 46.5668 74.1977 46.6317 74.0591 46.6774C73.9205 46.7231 73.7768 46.7543 73.6331 46.7711C73.4894 46.7879 73.3559 46.7952 73.2379 46.7879C72.9376 46.7687 72.6425 46.7038 72.355 46.5933C72.2832 46.4491 72.2216 46.2953 72.1702 46.1318C72.1189 45.9708 72.0933 45.829 72.0933 45.7065C72.0933 45.4541 72.1805 45.2426 72.3525 45.0672C72.5244 44.8941 72.7631 44.7619 73.0685 44.6706C73.3739 44.5817 73.7229 44.536 74.1155 44.536H74.657V44.3918C74.657 44.1731 74.5955 44.0049 74.4723 43.8799C74.3491 43.7573 74.1694 43.6853 73.9385 43.666C73.6947 43.6468 73.4175 43.6829 73.1018 43.7742C73.0043 43.803 72.9427 43.8294 72.9145 43.8535L72.2626 43.3464L72.278 43.2382C72.4988 43.1084 72.781 43.0051 73.1198 42.933C73.456 42.8657 73.7999 42.8321 74.1463 42.8369ZM74.657 45.1224H74.1155C73.8461 45.1224 73.6356 45.1609 73.4791 45.2378C73.3225 45.3147 73.2455 45.4445 73.2455 45.6223C73.2455 45.7088 73.2661 45.8266 73.3071 45.9708C73.3174 45.9708 73.3277 45.9732 73.3379 45.978C73.3482 45.9828 73.3585 45.9876 73.3687 45.9924C73.4149 46.0069 73.4714 46.0213 73.5355 46.0357C73.5997 46.0501 73.6664 46.0597 73.7332 46.0645C73.9231 46.0838 74.0976 46.0718 74.2516 46.0237C74.4055 45.978 74.5415 45.8915 74.6545 45.7665V45.1224H74.657Z" fill="#6D6E71"/>
<path d="M77.8813 45.8049C78.0404 45.8482 78.2175 45.8843 78.4126 45.9131C78.605 45.9419 78.7924 45.954 78.9746 45.9492C79.1927 45.9395 79.3955 45.9131 79.5879 45.8698C79.7779 45.8266 79.9755 45.7641 80.1756 45.6824L80.2603 45.7328V46.4659C80.2501 46.4707 80.2398 46.4755 80.2321 46.4779C80.2244 46.4803 80.2167 46.4851 80.2116 46.4899C79.9934 46.5957 79.7625 46.6774 79.5135 46.7302C79.2646 46.7831 78.9849 46.8095 78.6692 46.8095C78.2303 46.8095 77.7479 46.7519 77.2192 46.6341L77.1422 46.5476C76.9523 46.3193 76.7752 46.0573 76.611 45.7569C76.4493 45.4565 76.3672 45.1512 76.3672 44.8436C76.3672 44.4519 76.4698 44.1034 76.6726 43.7982C76.8779 43.493 77.1653 43.2574 77.54 43.0868C77.9147 42.9186 78.3535 42.832 78.854 42.832C79.0926 42.832 79.3364 42.8537 79.5854 42.8945C79.8369 42.9354 80.0525 42.9907 80.2321 43.0579L80.3245 43.1805L80.0986 44.0433C79.9549 43.9856 79.7933 43.94 79.6187 43.9063C79.4442 43.8727 79.2646 43.8559 79.0849 43.8559C78.5999 43.8414 78.2303 43.9232 77.9763 44.1034C77.7222 44.2812 77.5965 44.5312 77.5965 44.8508C77.5965 44.9998 77.6247 45.1609 77.6786 45.3291C77.7376 45.4949 77.8043 45.6559 77.8813 45.8049Z" fill="#6D6E71"/>
<path d="M81.2338 43.6805H80.7231V42.9259H81.2338V42.301L82.4349 42.0679V42.9235H83.31V43.6781H82.4349V45.3773C82.4349 45.4446 82.4375 45.5142 82.4477 45.5839C82.4554 45.6536 82.4631 45.7137 82.4657 45.7618L82.4734 45.8195C82.5247 45.8435 82.5889 45.8627 82.6633 45.8772C82.7377 45.8916 82.8199 45.8988 82.9071 45.8988C83.0354 45.8988 83.174 45.8771 83.3177 45.8339V46.6967C83.1997 46.7303 83.0483 46.7568 82.8635 46.7736C82.6787 46.7904 82.517 46.8 82.3707 46.8C82.2168 46.8 82.0551 46.776 81.8857 46.7279C81.7189 46.6799 81.5649 46.6198 81.4238 46.5453C81.3673 46.4011 81.3211 46.2377 81.2852 46.055C81.2492 45.8747 81.2313 45.6993 81.2313 45.5359V43.6805H81.2338Z" fill="#6D6E71"/>
<path d="M84.6049 42.5775L83.8838 41.9021L84.6049 41.2268L85.3184 41.9021L84.6049 42.5775ZM84.007 46.7208H85.2003V42.9332L84.007 43.2816V46.7208Z" fill="#6D6E71"/>
<path d="M89.9266 43.1927C89.9933 43.6661 90.0241 44.0819 90.0189 44.44V46.7184H88.8102V44.5626C88.8102 44.4328 88.7974 44.2141 88.7717 43.9089C88.6331 43.8368 88.4997 43.7887 88.3765 43.7671C88.2533 43.7454 88.0916 43.7382 87.8966 43.7502L87.2601 44.1131L87.2678 46.7184H86.0591V43.2431L87.2678 42.9091V43.8007L87.3217 43.8367L88.0891 42.8274C88.3945 42.8178 88.6614 42.825 88.8923 42.849C89.1233 42.873 89.3183 42.9139 89.48 42.9692C89.6443 43.0268 89.7931 43.1013 89.9266 43.1927Z" fill="#6D6E71"/>
<path d="M94.9093 42.9255V46.1411C94.9093 46.742 94.6938 47.1962 94.2653 47.5086C93.8368 47.8211 93.2672 47.9845 92.5539 47.9989C92.3743 48.0037 92.1921 47.9893 92.0073 47.958C91.8226 47.9268 91.6789 47.8956 91.5686 47.8667L91.0041 47.076L91.1118 46.9895C91.3145 47.0376 91.4993 47.076 91.6738 47.1025C91.8457 47.1289 92.0279 47.1433 92.2203 47.1433C92.5718 47.1433 92.8464 47.1169 93.0414 47.064C93.2364 47.0111 93.3878 46.9198 93.4904 46.7876C93.5931 46.6579 93.6521 46.4776 93.6675 46.2517L93.6829 45.723C93.5751 45.9465 93.4134 46.1195 93.1979 46.2421C92.9824 46.3646 92.7258 46.4295 92.4281 46.4343C92.1998 46.4391 91.9817 46.4199 91.7687 46.3719C91.5557 46.3238 91.3479 46.2757 91.1401 46.2228H91.1324C90.9579 45.9753 90.8193 45.7157 90.7193 45.4418C90.6192 45.1678 90.5679 44.9106 90.5679 44.6679C90.5679 44.3194 90.6423 44.0118 90.7937 43.7474C90.9425 43.4806 91.1503 43.274 91.4172 43.1274C91.684 42.9808 91.9842 42.9062 92.3204 42.9062C92.6257 42.9062 92.89 42.9784 93.1132 43.1201C93.339 43.2619 93.5648 43.4903 93.7906 43.7979H93.8676L93.8522 43.1226L94.9093 42.9255ZM93.7162 44.6439C93.7162 44.4949 93.6726 44.3458 93.5854 44.1968C93.4981 44.0502 93.3801 43.9301 93.2364 43.8387C93.0927 43.7474 92.9387 43.7018 92.7797 43.7018C92.5898 43.7018 92.4204 43.7426 92.2716 43.8219C92.1254 43.9012 92.0099 44.0142 91.9304 44.1584C91.8508 44.3026 91.8098 44.4732 91.8098 44.6655C91.8149 44.728 91.8226 44.7977 91.8328 44.8722C91.8431 44.9467 91.8559 45.0236 91.8713 45.1005C91.897 45.2687 91.9329 45.4249 91.9791 45.5643L92.0176 45.5787C92.2716 45.6605 92.5154 45.7013 92.754 45.7013C92.949 45.7013 93.1209 45.6605 93.2646 45.5812C93.4083 45.5018 93.5212 45.3817 93.5982 45.2231C93.6777 45.0644 93.7162 44.8722 93.7162 44.6439Z" fill="#6D6E71"/>
<path d="M97.3892 41.5322H100.931L101.031 41.6548L100.797 42.4455L98.6441 42.4311V43.664H100.458L100.551 43.7793L100.356 44.5051H98.6441V45.8053H101.077L101.162 45.9063L100.913 46.7186H97.3943L97.3892 41.5322Z" fill="#6D6E71"/>
<path d="M101.712 45.7402L101.774 45.6825C102.095 45.8315 102.39 45.9301 102.662 45.9757C102.934 46.0214 103.196 46.0454 103.45 46.0454C103.593 46.0454 103.758 46.0238 103.937 45.9805C103.968 45.9277 103.996 45.8724 104.019 45.8147C104.042 45.757 104.055 45.7042 104.055 45.6561C104.055 45.5167 103.996 45.4109 103.878 45.3412C103.76 45.2716 103.56 45.2163 103.28 45.1778C103.219 45.1682 103.157 45.1586 103.098 45.149C103.039 45.1394 102.98 45.1298 102.924 45.1201C102.639 45.0721 102.41 45.012 102.238 44.9399C102.066 44.8678 101.93 44.7596 101.833 44.6178C101.735 44.476 101.687 44.2886 101.687 44.0555C101.687 43.8031 101.761 43.5868 101.907 43.4018C102.054 43.2191 102.256 43.0797 102.515 42.9836C102.775 42.8899 103.067 42.8418 103.398 42.8418C103.678 42.8418 103.981 42.8778 104.309 42.9475C104.638 43.0172 104.91 43.1014 105.128 43.1975V43.8728L105.043 43.9233C104.884 43.832 104.679 43.7527 104.43 43.683C104.181 43.6157 103.94 43.5724 103.701 43.5532C103.426 43.5388 103.211 43.5652 103.054 43.6325C102.898 43.6998 102.818 43.8103 102.818 43.9593C102.818 44.0459 102.847 44.118 102.903 44.1732C102.959 44.2285 103.034 44.2718 103.126 44.303C103.219 44.3343 103.347 44.3655 103.506 44.3943L103.668 44.4232C104.014 44.4664 104.299 44.5265 104.52 44.6034C104.74 44.6803 104.915 44.7957 105.038 44.9447C105.161 45.0937 105.226 45.2932 105.226 45.5407C105.226 45.6753 105.187 45.8387 105.113 46.0262C105.038 46.2161 104.943 46.4011 104.83 46.5862C104.607 46.6487 104.373 46.7015 104.125 46.7448C103.876 46.7881 103.655 46.8097 103.457 46.8097C103.229 46.8097 103 46.7881 102.767 46.7448C102.533 46.7015 102.297 46.6198 102.054 46.4972L101.712 45.7402Z" fill="#6D6E71"/>
<path d="M105.997 43.6805H105.486V42.9259H105.997V42.301L107.198 42.0679V42.9235H108.073V43.6781H107.198V45.3773C107.198 45.4446 107.2 45.5142 107.21 45.5839C107.218 45.6536 107.226 45.7137 107.228 45.7618L107.236 45.8195C107.287 45.8435 107.352 45.8627 107.426 45.8772C107.5 45.8916 107.583 45.8988 107.67 45.8988C107.798 45.8988 107.937 45.8771 108.08 45.8339V46.6967C107.962 46.7303 107.811 46.7568 107.626 46.7736C107.441 46.7904 107.28 46.8 107.133 46.8C106.979 46.8 106.818 46.776 106.648 46.7279C106.482 46.6799 106.328 46.6198 106.186 46.5453C106.13 46.4011 106.084 46.2377 106.048 46.055C106.012 45.8723 105.994 45.6993 105.994 45.5359V43.6805H105.997Z" fill="#6D6E71"/>
<path d="M149.954 8.0393V45.935C149.362 46.0792 148.769 46.2186 148.176 46.3459C147.902 46.4084 147.627 46.4661 147.355 46.5214C147.081 46.5791 146.806 46.6344 146.532 46.6872C146.396 46.7137 146.26 46.7401 146.121 46.7641C141.995 47.55 137.867 47.9586 133.738 47.9946H133.736C133.299 47.9994 132.863 47.9994 132.427 47.9946H132.424C128.306 47.9562 124.19 47.5428 120.072 46.7569C119.936 46.7329 119.8 46.7064 119.662 46.6776C119.397 46.6271 119.133 46.5743 118.869 46.519C118.594 46.4661 118.322 46.406 118.048 46.3459C117.455 46.2162 116.862 46.0792 116.27 45.935V8.0393C116.865 7.92875 117.458 7.823 118.048 7.72447C118.322 7.6764 118.597 7.63074 118.869 7.58988C119.133 7.54662 119.397 7.50576 119.662 7.46731C119.8 7.44568 119.936 7.42406 120.072 7.40483C124.288 6.77996 128.404 6.45311 132.422 6.41225C132.861 6.40504 133.299 6.40504 133.738 6.40744C137.967 6.42186 142.093 6.74872 146.121 7.36637C146.257 7.3856 146.393 7.40723 146.532 7.42886C146.806 7.47212 147.081 7.51778 147.355 7.56344C147.63 7.6067 147.902 7.65477 148.176 7.70524C148.772 7.80859 149.364 7.92154 149.954 8.0393Z" fill="#8B0033"/>
<path d="M148.178 7.70479V46.3455C147.903 46.408 147.628 46.4657 147.356 46.5209V7.56299C147.631 7.60625 147.903 7.65432 148.178 7.70479Z" fill="white"/>
<path d="M146.533 7.42869V46.6871C146.397 46.7135 146.261 46.7399 146.123 46.764V7.36621C146.259 7.38544 146.395 7.40706 146.533 7.42869Z" fill="black"/>
<path d="M120.073 7.4043V46.7564C119.937 46.7323 119.801 46.7059 119.663 46.6771V7.46678C119.801 7.44515 119.937 7.42352 120.073 7.4043Z" fill="black"/>
<path d="M118.87 7.58984V46.519C118.595 46.4661 118.323 46.406 118.049 46.3459V7.72443C118.323 7.67636 118.598 7.6307 118.87 7.58984Z" fill="white"/>
<path d="M128.031 14.8691H138.136L133.083 21.0361L128.031 14.8691Z" fill="white"/>
<path d="M122.979 21.0361H133.084L128.032 27.2007L122.979 21.0361Z" fill="white"/>
<path d="M133.083 21.0361H143.188L138.136 27.2007L133.083 21.0361Z" fill="white"/>
<path d="M138.136 39.5322H128.031L133.083 33.3677L138.136 39.5322Z" fill="white"/>
<path d="M143.188 33.3676H133.083L138.136 27.2007L143.188 33.3676Z" fill="white"/>
<path d="M133.084 33.3676H122.979L128.032 27.2007L133.084 33.3676Z" fill="white"/>
<path d="M128.029 26.9819H120.865V27.4025H128.029V26.9819Z" fill="white"/>
<path d="M145.299 26.9819H138.135V27.4025H145.299V26.9819Z" fill="white"/>
<path d="M138.133 11.7741H128.028L132.421 6.41225C132.86 6.40504 133.299 6.40504 133.737 6.40744L138.133 11.7741Z" fill="white"/>
<path d="M138.133 42.6279L133.737 47.9946H133.735C133.299 47.9994 132.862 47.9994 132.426 47.9946H132.424L128.028 42.6279H138.133Z" fill="white"/>
<path d="M149.956 1.75413L150 6.77709C150 6.77709 148.286 6.41178 147.426 6.25316C146.572 6.08974 145.707 5.94313 144.848 5.81335C143.98 5.67876 143.116 5.56581 142.249 5.45766C141.381 5.35672 140.517 5.2726 139.644 5.1981C138.777 5.126 137.907 5.06352 137.035 5.02266C136.167 4.977 135.298 4.95056 134.425 4.93374C133.553 4.92172 132.68 4.92172 131.808 4.93374C130.936 4.95056 130.063 4.9794 129.191 5.02266C128.318 5.06111 127.454 5.1236 126.581 5.1981C125.714 5.2702 124.844 5.35672 123.977 5.45766C123.11 5.56581 122.245 5.67636 121.385 5.81335C120.518 5.94313 119.658 6.08974 118.799 6.25316C117.939 6.41178 116.23 6.77709 116.23 6.77709L116.272 1.7301C116.272 1.7301 116.849 1.59311 117.77 1.42007C117.939 2.22518 118.114 3.0303 118.288 3.83781C119.174 3.66958 120.069 3.52298 120.965 3.38118C121.855 3.2466 122.75 3.12883 123.654 3.02068C123.538 2.20355 123.43 1.39363 123.323 0.576503C124.249 0.468353 125.18 0.37462 126.114 0.295311C126.191 1.11244 126.271 1.93438 126.348 2.75151C127.251 2.6722 128.152 2.60972 129.055 2.56646C129.958 2.5208 130.859 2.49436 131.762 2.47754C131.744 1.6604 131.726 0.838462 131.713 0.0165237C132.652 -0.000299573 133.584 -0.000299573 134.515 0.0165237C134.502 0.838462 134.484 1.6604 134.474 2.47754C135.377 2.49436 136.278 2.5232 137.181 2.56646C138.084 2.61212 138.985 2.67461 139.88 2.75151C139.957 1.92957 140.037 1.11244 140.121 0.295311C141.048 0.37462 141.979 0.470757 142.913 0.576503C142.798 1.39363 142.69 2.20355 142.582 3.02068C143.478 3.12883 144.373 3.2466 145.271 3.38118C146.167 3.52298 147.057 3.66958 147.947 3.83781C148.122 3.0327 148.466 1.42007 148.466 1.42007L149.956 1.75413Z" fill="#1D7217"/>
<path d="M135.986 27.2009L133.082 30.7458L130.177 27.2009L133.082 23.656L135.986 27.2009Z" fill="#42BF39"/>
</svg>
