<svg width="65" height="27" viewBox="0 0 65 27" fill="none" xmlns="http://www.w3.org/2000/svg">
<path d="M7.60266 1.04169V24.3327C5.33729 23.2974 3.42087 21.6519 2.07824 19.5892C0.735609 17.5265 0.0224609 15.1322 0.0224609 12.6872C0.0224609 10.2422 0.735609 7.84785 2.07824 5.78517C3.42087 3.72247 5.33729 2.07696 7.60266 1.04169ZM15.1622 13.6357C14.4053 13.6423 13.6499 13.5696 12.9088 13.4188V4.27539L14.964 4.23645C18.5008 4.23645 20.2703 5.76684 20.2724 8.82765C20.2736 12.033 18.5708 13.6357 15.164 13.6357H15.1622Z" fill="#F6F3F0"/>
<path d="M26.0361 12.6868C26.0361 16.0799 24.6581 19.3343 22.2049 21.7343C19.7518 24.1343 16.4243 25.4837 12.954 25.4857H12.8789V17.9016C13.4825 17.9538 14.127 17.9799 14.8127 17.9799C18.3024 17.9799 21.0502 17.0536 23.0558 15.2007C24.5384 13.8174 25.4913 11.9791 25.7559 9.99213C25.9459 10.8782 26.0398 11.7814 26.0361 12.6868Z" fill="#F6F3F0"/>
<path d="M30.4482 15.4416V6.75989H33.7892C34.5259 6.75989 35.1369 6.86158 35.6222 7.06495C36.1076 7.25984 36.4716 7.57762 36.7142 8.01829C36.9656 8.4589 37.0912 9.04789 37.0912 9.78513C37.0912 10.5224 36.9656 11.124 36.7142 11.5901C36.4716 12.0477 36.1076 12.3866 35.6222 12.607C35.1369 12.8188 34.5259 12.9248 33.7892 12.9248H32.2422V15.4416H30.4482ZM32.2422 11.4884H33.7372C34.2832 11.4884 34.6732 11.3486 34.9072 11.069C35.1412 10.7808 35.2582 10.3571 35.2582 9.79784C35.2582 9.22157 35.1412 8.81059 34.9072 8.56487C34.6732 8.31908 34.2832 8.19624 33.7372 8.19624H32.2422V11.4884ZM41.4953 15.5814C40.7673 15.5814 40.1476 15.4881 39.6363 15.3018C39.1336 15.1153 38.7523 14.806 38.4923 14.3738C38.2323 13.9332 38.1023 13.3485 38.1023 12.6197V6.75989H39.8963V12.6833C39.8963 13.1832 40.0306 13.5433 40.2993 13.7637C40.5766 13.984 40.9753 14.0942 41.4953 14.0942C42.0413 14.0942 42.4529 13.984 42.7303 13.7637C43.0076 13.5433 43.1463 13.1832 43.1463 12.6833V6.75989H44.9403V12.5943C44.9403 13.323 44.8059 13.9077 44.5373 14.3484C44.2773 14.789 43.8916 15.1068 43.3803 15.3018C42.8776 15.4881 42.2493 15.5814 41.4953 15.5814ZM46.5078 15.4416V6.75989H48.3018V15.4416H46.5078ZM53.2892 15.5814C52.5612 15.5814 51.9416 15.4881 51.4302 15.3018C50.9276 15.1153 50.5462 14.806 50.2862 14.3738C50.0262 13.9332 49.8962 13.3485 49.8962 12.6197V6.75989H51.6902V12.6833C51.6902 13.1832 51.8246 13.5433 52.0932 13.7637C52.3706 13.984 52.7692 14.0942 53.2892 14.0942C53.8352 14.0942 54.2469 13.984 54.5242 13.7637C54.8016 13.5433 54.9402 13.1832 54.9402 12.6833V6.75989H56.7342V12.5943C56.7342 13.323 56.5999 13.9077 56.3312 14.3484C56.0712 14.789 55.6856 15.1068 55.1742 15.3018C54.6716 15.4881 54.0432 15.5814 53.2892 15.5814ZM57.5867 15.4416L60.0047 11.2215L57.5867 6.75989H59.4847L61.1747 9.95038L62.9557 6.75989H64.7887L62.3577 11.0562L64.7367 15.4416H62.8257L61.1617 12.3401L59.4457 15.4416H57.5867Z" fill="#F6F3F0"/>
<path d="M31.2689 21.2639L30.7129 18.5613H31.0449L31.5089 20.9901H31.6209L32.1809 18.5809H32.5569L33.1169 20.9901H33.2289L33.6929 18.5613H34.0249L33.4649 21.2639H32.8889L32.3409 18.8312H32.3969L31.8489 21.2639H31.2689ZM35.0186 21.303C34.8186 21.303 34.6599 21.2652 34.5426 21.1896C34.4279 21.114 34.3453 21.0019 34.2946 20.8532C34.2439 20.7046 34.2186 20.5195 34.2186 20.2979C34.2186 20.0502 34.2533 19.852 34.3226 19.7034C34.392 19.5521 34.4893 19.4426 34.6146 19.3749C34.7399 19.3044 34.8879 19.2692 35.0586 19.2692C35.3252 19.2692 35.5266 19.3423 35.6626 19.4883C35.7986 19.6317 35.8666 19.8637 35.8666 20.1844L35.8506 20.4152H34.5346C34.5373 20.6186 34.5759 20.7724 34.6506 20.8767C34.7253 20.981 34.86 21.0331 35.0546 21.0331C35.1292 21.0331 35.2106 21.0319 35.2986 21.0292C35.3892 21.024 35.4786 21.0188 35.5666 21.0136C35.6546 21.0083 35.7292 21.0031 35.7906 20.9979L35.7986 21.2365C35.7346 21.247 35.6559 21.2574 35.5626 21.2678C35.4719 21.2782 35.3786 21.2861 35.2826 21.2913C35.1866 21.2991 35.0986 21.303 35.0186 21.303ZM34.5346 20.1688H35.5546C35.5546 19.9289 35.5146 19.762 35.4346 19.6682C35.3573 19.5717 35.2319 19.5235 35.0586 19.5235C34.9466 19.5235 34.8519 19.5456 34.7746 19.59C34.6973 19.6317 34.6372 19.6995 34.5946 19.7933C34.5546 19.8872 34.5346 20.0123 34.5346 20.1688ZM37.0021 21.303C36.9434 21.303 36.8728 21.3004 36.7901 21.2952C36.7101 21.2926 36.6288 21.2874 36.5461 21.2796C36.4634 21.2717 36.3901 21.2652 36.3261 21.26V18.4597H36.6381V19.4022C36.6808 19.3813 36.7341 19.3618 36.7981 19.3435C36.8621 19.3227 36.9301 19.3058 37.0021 19.2927C37.0768 19.277 37.1475 19.2692 37.2141 19.2692C37.3955 19.2692 37.5394 19.3032 37.6461 19.3709C37.7555 19.4361 37.8328 19.5417 37.8781 19.6877C37.9261 19.8311 37.9501 20.0202 37.9501 20.2548C37.9501 20.5156 37.9208 20.7229 37.8621 20.8767C37.8061 21.0279 37.7088 21.1374 37.5701 21.2053C37.4341 21.2704 37.2448 21.303 37.0021 21.303ZM36.9981 21.0292C37.1794 21.0292 37.3141 21.0031 37.4021 20.951C37.4928 20.8963 37.5528 20.8115 37.5821 20.6968C37.6141 20.5821 37.6301 20.4347 37.6301 20.2548C37.6301 20.088 37.6168 19.9524 37.5901 19.8481C37.5635 19.7438 37.5168 19.6669 37.4501 19.6173C37.3861 19.5678 37.2968 19.543 37.1821 19.543C37.1181 19.543 37.0515 19.5495 36.9821 19.5626C36.9128 19.573 36.8475 19.5874 36.7861 19.6056C36.7275 19.6212 36.6781 19.6369 36.6381 19.6525V21.0097C36.6941 21.0149 36.7581 21.0201 36.8301 21.0253C36.9048 21.0279 36.9608 21.0292 36.9981 21.0292ZM38.5048 21.3225L38.2248 21.2248L39.3528 18.4909L39.6328 18.5926L38.5048 21.3225ZM39.7005 21.2639L40.4565 18.5613H41.1485L41.9005 21.2639H41.5805L41.3845 20.5795H40.2165L40.0205 21.2639H39.7005ZM40.2846 20.3018H41.3165L40.9045 18.8273H40.6965L40.2846 20.3018ZM42.2793 22.1283V19.3084H42.5873V19.4492C42.63 19.423 42.6833 19.397 42.7473 19.3709C42.814 19.3423 42.8847 19.3188 42.9594 19.3005C43.034 19.2796 43.106 19.2692 43.1753 19.2692C43.346 19.2692 43.4847 19.3044 43.5913 19.3749C43.698 19.4426 43.7766 19.5495 43.8273 19.6955C43.8806 19.8416 43.9074 20.0306 43.9074 20.2627C43.9074 20.5182 43.8767 20.7229 43.8154 20.8767C43.7567 21.0279 43.662 21.1374 43.5314 21.2053C43.4033 21.2704 43.2367 21.303 43.0313 21.303C42.9487 21.303 42.8647 21.2978 42.7793 21.2874C42.6966 21.277 42.6327 21.2678 42.5873 21.26V22.1283H42.2793ZM43.0153 21.0371C43.1593 21.0371 43.2727 21.011 43.3553 20.9588C43.4407 20.9067 43.5007 20.8246 43.5353 20.7124C43.57 20.5977 43.5873 20.4478 43.5873 20.2627C43.5873 19.9993 43.5473 19.8142 43.4674 19.7073C43.3874 19.5978 43.2753 19.543 43.1313 19.543C43.0673 19.543 43.0007 19.5508 42.9314 19.5665C42.8647 19.5821 42.8006 19.6017 42.7394 19.6251C42.678 19.646 42.6273 19.6682 42.5873 19.6917V20.9979C42.63 21.0031 42.6927 21.011 42.7754 21.0214C42.858 21.0319 42.938 21.0371 43.0153 21.0371ZM44.3926 22.1283V19.3084H44.7006V19.4492C44.7433 19.423 44.7966 19.397 44.8606 19.3709C44.9273 19.3423 44.9979 19.3188 45.0726 19.3005C45.1473 19.2796 45.2193 19.2692 45.2886 19.2692C45.4593 19.2692 45.5979 19.3044 45.7046 19.3749C45.8113 19.4426 45.89 19.5495 45.9406 19.6955C45.994 19.8416 46.0206 20.0306 46.0206 20.2627C46.0206 20.5182 45.99 20.7229 45.9286 20.8767C45.8699 21.0279 45.7753 21.1374 45.6446 21.2053C45.5166 21.2704 45.3499 21.303 45.1446 21.303C45.0619 21.303 44.978 21.2978 44.8926 21.2874C44.81 21.277 44.746 21.2678 44.7006 21.26V22.1283H44.3926ZM45.1286 21.0371C45.2726 21.0371 45.3859 21.011 45.4686 20.9588C45.5539 20.9067 45.614 20.8246 45.6487 20.7124C45.6833 20.5977 45.7007 20.4478 45.7007 20.2627C45.7007 19.9993 45.6606 19.8142 45.5806 19.7073C45.5006 19.5978 45.3887 19.543 45.2446 19.543C45.1807 19.543 45.1139 19.5508 45.0446 19.5665C44.978 19.5821 44.914 19.6017 44.8526 19.6251C44.7913 19.646 44.7406 19.6682 44.7006 19.6917V20.9979C44.7433 21.0031 44.806 21.011 44.8886 21.0214C44.9713 21.0319 45.0513 21.0371 45.1286 21.0371ZM47.1299 21.303C47.0685 21.303 46.9939 21.2991 46.9059 21.2913C46.8205 21.2834 46.7352 21.2744 46.6499 21.2639C46.5646 21.2508 46.4886 21.2391 46.4219 21.2287L46.4379 20.9666C46.5046 20.9745 46.5792 20.9836 46.6619 20.994C46.7472 21.0045 46.8299 21.0136 46.9099 21.0214C46.9899 21.0266 47.0539 21.0292 47.1019 21.0292C47.2113 21.0292 47.3019 21.0201 47.3739 21.0019C47.4459 20.981 47.5006 20.9471 47.5379 20.9002C47.5753 20.8532 47.5939 20.7868 47.5939 20.7007C47.5939 20.6355 47.5792 20.5847 47.5499 20.5481C47.5233 20.5117 47.4713 20.4817 47.3939 20.4582C47.3192 20.4347 47.2099 20.4126 47.0659 20.3917C46.9166 20.3682 46.7912 20.3396 46.6899 20.3057C46.5912 20.2692 46.5179 20.2157 46.4699 20.1453C46.4219 20.0749 46.3979 19.9745 46.3979 19.8442C46.3979 19.6982 46.4325 19.5834 46.5019 19.5C46.5712 19.4166 46.6606 19.3579 46.7699 19.324C46.8819 19.2875 46.9979 19.2692 47.1179 19.2692C47.1926 19.2692 47.2739 19.2732 47.3619 19.281C47.4526 19.2888 47.5406 19.2992 47.6259 19.3123C47.7112 19.3227 47.7846 19.3331 47.8459 19.3435L47.8379 19.6056C47.7739 19.5952 47.6992 19.586 47.6139 19.5782C47.5286 19.5678 47.4432 19.56 47.3579 19.5547C47.2726 19.5469 47.1979 19.543 47.1339 19.543C47.0539 19.543 46.9819 19.5521 46.9179 19.5704C46.8539 19.586 46.8032 19.6147 46.7659 19.6564C46.7286 19.6982 46.7099 19.7568 46.7099 19.8325C46.7099 19.8898 46.7232 19.9367 46.7499 19.9733C46.7766 20.0071 46.8272 20.0358 46.9019 20.0593C46.9765 20.0827 47.0846 20.1062 47.2259 20.1297C47.3912 20.1558 47.5232 20.1884 47.6219 20.2275C47.7232 20.2665 47.7965 20.3213 47.8419 20.3917C47.8872 20.4621 47.9099 20.5612 47.9099 20.689C47.9099 20.8402 47.8779 20.9614 47.8139 21.0527C47.7526 21.1414 47.6632 21.2053 47.5459 21.2444C47.4312 21.2834 47.2926 21.303 47.1299 21.303ZM50.0521 21.2991C49.9721 21.2991 49.8787 21.2939 49.7721 21.2834C49.6654 21.2756 49.5588 21.2652 49.4521 21.2522C49.3481 21.2365 49.2561 21.2235 49.1761 21.2131L49.2081 20.9549C49.2854 20.9628 49.3747 20.9719 49.4761 20.9823C49.5801 20.9927 49.6814 21.0019 49.7801 21.0097C49.8815 21.0175 49.9668 21.0214 50.0361 21.0214C50.1667 21.0214 50.2748 21.0031 50.3601 20.9666C50.4454 20.9275 50.5094 20.8689 50.5521 20.7906C50.5947 20.7124 50.6161 20.6121 50.6161 20.4895C50.6161 20.3904 50.5961 20.3122 50.5561 20.2548C50.5187 20.1948 50.4548 20.1479 50.3641 20.114C50.2761 20.0775 50.1574 20.045 50.0081 20.0162C49.8641 19.9876 49.7387 19.955 49.6321 19.9185C49.5254 19.882 49.4361 19.8363 49.3641 19.7816C49.2921 19.7242 49.2388 19.6525 49.2041 19.5665C49.1694 19.4804 49.1521 19.3735 49.1521 19.2458C49.1521 19.0711 49.1881 18.9303 49.2601 18.8234C49.3347 18.7165 49.4387 18.6382 49.5721 18.5887C49.7081 18.5392 49.8654 18.5144 50.0441 18.5144C50.1241 18.5144 50.2148 18.5196 50.3161 18.53C50.4201 18.5378 50.5214 18.5483 50.6201 18.5613C50.7214 18.5717 50.8081 18.5835 50.8801 18.5965L50.8521 18.8586C50.7747 18.8482 50.6854 18.839 50.5841 18.8312C50.4828 18.8208 50.3854 18.8116 50.2921 18.8038C50.1988 18.796 50.1241 18.7921 50.0681 18.7921C49.9401 18.7921 49.8321 18.8077 49.7441 18.839C49.6561 18.8703 49.5894 18.9185 49.5441 18.9837C49.4988 19.0463 49.4761 19.1271 49.4761 19.2262C49.4761 19.3409 49.4974 19.4283 49.5401 19.4883C49.5854 19.5482 49.6574 19.5952 49.7561 19.6291C49.8547 19.6629 49.9841 19.6982 50.1441 19.7346C50.2827 19.766 50.4015 19.7999 50.5001 19.8363C50.6014 19.8728 50.6841 19.9185 50.7481 19.9733C50.8147 20.0254 50.8628 20.0919 50.8921 20.1727C50.9241 20.2509 50.9401 20.3487 50.9401 20.466C50.9401 20.6642 50.9041 20.8246 50.8321 20.9471C50.7601 21.0697 50.6574 21.1596 50.5241 21.217C50.3908 21.2717 50.2334 21.2991 50.0521 21.2991ZM52.184 21.303C51.96 21.303 51.7854 21.2652 51.6601 21.1896C51.5374 21.114 51.4507 20.9992 51.4001 20.8454C51.352 20.6916 51.3281 20.4973 51.3281 20.2627C51.3281 20.0384 51.3547 19.8533 51.4081 19.7073C51.4641 19.5612 51.5547 19.4518 51.6801 19.3787C51.8054 19.3058 51.9734 19.2692 52.184 19.2692C52.3974 19.2692 52.5667 19.3058 52.692 19.3787C52.8174 19.4518 52.9067 19.5612 52.9601 19.7073C53.016 19.8533 53.0441 20.0384 53.0441 20.2627C53.0441 20.4973 53.0187 20.6916 52.9681 20.8454C52.9201 20.9992 52.8334 21.114 52.7081 21.1896C52.5854 21.2652 52.4107 21.303 52.184 21.303ZM52.184 21.041C52.3387 21.041 52.4547 21.0149 52.532 20.9628C52.6094 20.908 52.6601 20.8232 52.6841 20.7085C52.7107 20.5938 52.7241 20.4452 52.7241 20.2627C52.7241 20.0828 52.7081 19.9393 52.676 19.8325C52.6441 19.7255 52.5894 19.6486 52.5121 19.6017C52.4347 19.5547 52.3254 19.5313 52.184 19.5313C52.0454 19.5313 51.936 19.5547 51.856 19.6017C51.7787 19.6486 51.7241 19.7255 51.6921 19.8325C51.6601 19.9393 51.6441 20.0828 51.6441 20.2627C51.6441 20.4452 51.6561 20.5938 51.6801 20.7085C51.7067 20.8232 51.7587 20.908 51.8361 20.9628C51.9134 21.0149 52.0294 21.041 52.184 21.041ZM53.5573 21.2639V18.4597H53.8652V21.2639H53.5573ZM55.0748 21.303C54.9042 21.303 54.7735 21.2691 54.6828 21.2013C54.5922 21.1336 54.5295 21.0279 54.4949 20.8845C54.4628 20.7411 54.4468 20.556 54.4468 20.3292V19.3084H54.7549V20.3292C54.7549 20.5012 54.7628 20.6381 54.7788 20.7398C54.7975 20.8415 54.8362 20.9158 54.8948 20.9628C54.9535 21.0071 55.0415 21.0292 55.1589 21.0292C55.2762 21.0292 55.3828 21.0136 55.4788 20.9823C55.5749 20.951 55.6522 20.9197 55.7108 20.8885V19.3084H56.0189V21.2639H55.7108V21.127C55.6255 21.1739 55.5322 21.2157 55.4309 21.2522C55.3322 21.2861 55.2135 21.303 55.0748 21.303ZM57.2517 21.3069C57.1131 21.3069 57.0024 21.2861 56.9198 21.2444C56.8398 21.2026 56.7824 21.1309 56.7478 21.0292C56.7131 20.9249 56.6958 20.7789 56.6958 20.5912V19.5704H56.4118V19.3084H56.6958V18.7099H57.0037V19.3084H57.6318V19.5704H57.0037V20.5012C57.0037 20.6394 57.0091 20.7477 57.0197 20.8258C57.0331 20.9015 57.0598 20.9549 57.0998 20.9862C57.1398 21.0175 57.2024 21.0331 57.2877 21.0331C57.3144 21.0331 57.3491 21.0319 57.3917 21.0292C57.4344 21.0266 57.4771 21.024 57.5197 21.0214C57.5651 21.0162 57.6051 21.0123 57.6397 21.0097L57.6598 21.2639C57.6224 21.2691 57.5784 21.2744 57.5278 21.2796C57.4771 21.2874 57.4264 21.2939 57.3758 21.2991C57.3277 21.3043 57.2864 21.3069 57.2517 21.3069ZM57.9981 21.2639V19.3084H58.3061V21.2639H57.9981ZM57.9981 18.8781V18.5261H58.3061V18.8781H57.9981ZM59.6488 21.303C59.4249 21.303 59.25 21.2652 59.1247 21.1896C59.0022 21.114 58.9156 20.9992 58.8649 20.8454C58.8169 20.6916 58.7929 20.4973 58.7929 20.2627C58.7929 20.0384 58.8195 19.8533 58.8729 19.7073C58.9289 19.5612 59.0196 19.4518 59.1448 19.3787C59.2701 19.3058 59.4385 19.2692 59.6488 19.2692C59.8621 19.2692 60.0317 19.3058 60.157 19.3787C60.2823 19.4518 60.3715 19.5612 60.4247 19.7073C60.4808 19.8533 60.5092 20.0384 60.5092 20.2627C60.5092 20.4973 60.4838 20.6916 60.433 20.8454C60.3851 20.9992 60.2982 21.114 60.173 21.1896C60.0501 21.2652 59.8757 21.303 59.6488 21.303ZM59.6488 21.041C59.8036 21.041 59.9195 21.0149 59.9969 20.9628C60.0743 20.908 60.1251 20.8232 60.1487 20.7085C60.1753 20.5938 60.1889 20.4452 60.1889 20.2627C60.1889 20.0828 60.173 19.9393 60.1411 19.8325C60.1091 19.7255 60.0542 19.6486 59.9768 19.6017C59.8994 19.5547 59.7901 19.5313 59.6488 19.5313C59.51 19.5313 59.4006 19.5547 59.3209 19.6017C59.2435 19.6486 59.1891 19.7255 59.1572 19.8325C59.1247 19.9393 59.1087 20.0828 59.1087 20.2627C59.1087 20.4452 59.1211 20.5938 59.1448 20.7085C59.1714 20.8232 59.2234 20.908 59.3008 20.9628C59.3782 21.0149 59.494 21.041 59.6488 21.041ZM60.9979 21.2639V19.3084H61.3063V19.4452C61.3512 19.4192 61.4074 19.3931 61.4741 19.367C61.5433 19.3409 61.6165 19.3188 61.694 19.3005C61.7714 19.2796 61.8458 19.2692 61.9179 19.2692C62.0568 19.2692 62.1702 19.2875 62.2583 19.324C62.3463 19.3579 62.4143 19.414 62.4621 19.4921C62.513 19.5678 62.5472 19.6669 62.5661 19.7894C62.5874 19.9094 62.598 20.0554 62.598 20.2275V21.2639H62.286V20.2392C62.286 20.0697 62.2754 19.9341 62.2541 19.8325C62.2352 19.7308 62.1956 19.6577 62.1342 19.6134C62.0757 19.5665 61.9847 19.543 61.8624 19.543C61.7956 19.543 61.7259 19.5508 61.6544 19.5665C61.5846 19.5795 61.5196 19.5978 61.4582 19.6212C61.3967 19.6421 61.3459 19.6629 61.3063 19.6838V21.2639H60.9979ZM63.7746 21.303C63.7131 21.303 63.6386 21.2991 63.5506 21.2913C63.4649 21.2834 63.3798 21.2744 63.2941 21.2639C63.209 21.2508 63.1328 21.2391 63.0666 21.2287L63.0826 20.9666C63.1494 20.9745 63.2238 20.9836 63.3065 20.994C63.3916 21.0045 63.4744 21.0136 63.5541 21.0214C63.6345 21.0266 63.6983 21.0292 63.7462 21.0292C63.8555 21.0292 63.9465 21.0201 64.0186 21.0019C64.0907 20.981 64.145 20.9471 64.1823 20.9002C64.2195 20.8532 64.2384 20.7868 64.2384 20.7007C64.2384 20.6355 64.2236 20.5847 64.1947 20.5481C64.1675 20.5117 64.1155 20.4817 64.0387 20.4582C63.9636 20.4347 63.8543 20.4126 63.7101 20.3917C63.5612 20.3682 63.436 20.3396 63.3343 20.3057C63.2356 20.2692 63.1624 20.2157 63.1145 20.1453C63.0666 20.0749 63.0424 19.9745 63.0424 19.8442C63.0424 19.6982 63.0773 19.5834 63.1464 19.5C63.2155 19.4166 63.3054 19.3579 63.4147 19.324C63.5264 19.2875 63.6422 19.2692 63.7621 19.2692C63.8372 19.2692 63.9181 19.2732 64.0062 19.281C64.0972 19.2888 64.1852 19.2992 64.2703 19.3123C64.356 19.3227 64.4293 19.3331 64.4901 19.3435L64.4825 19.6056C64.4186 19.5952 64.3436 19.586 64.2585 19.5782C64.1728 19.5678 64.0877 19.56 64.0026 19.5547C63.917 19.5469 63.8425 19.543 63.7787 19.543C63.6983 19.543 63.6262 19.5521 63.5624 19.5704C63.4986 19.586 63.4478 19.6147 63.4105 19.6564C63.3733 19.6982 63.3544 19.7568 63.3544 19.8325C63.3544 19.8898 63.368 19.9367 63.3946 19.9733C63.4212 20.0071 63.472 20.0358 63.5465 20.0593C63.6209 20.0827 63.729 20.1062 63.8703 20.1297C64.0357 20.1558 64.1675 20.1884 64.2662 20.2275C64.3678 20.2665 64.4411 20.3213 64.4866 20.3917C64.5315 20.4621 64.5546 20.5612 64.5546 20.689C64.5546 20.8402 64.5226 20.9614 64.4582 21.0527C64.3974 21.1414 64.3075 21.2053 64.1905 21.2444C64.0759 21.2834 63.937 21.303 63.7746 21.303Z" fill="#F6F3F0"/>
</svg>
