<svg width="110" height="20" viewBox="0 0 110 20" fill="none" xmlns="http://www.w3.org/2000/svg">
<path d="M109.858 5.16811L110 20C110 20 104.417 18.9213 101.617 18.4529C98.8337 17.9704 96.017 17.5375 93.2171 17.1543C90.3921 16.7568 87.5754 16.4233 84.7504 16.104C81.9254 15.8059 79.1087 15.5575 76.267 15.3375C73.442 15.1246 70.6086 14.9401 67.7669 14.8195C64.9419 14.6847 62.1085 14.6066 59.2668 14.5569C56.425 14.5214 53.5833 14.5214 50.7416 14.5569C47.8999 14.6066 45.0581 14.6918 42.2164 14.8195C39.3747 14.933 36.558 15.1175 33.7163 15.3375C30.8913 15.5504 28.0579 15.8059 25.2329 16.104C22.4079 16.4233 19.5912 16.7498 16.7913 17.1543C13.9663 17.5375 11.1663 17.9704 8.36639 18.4529C5.56646 18.9213 0 20 0 20L0.133706 5.09714C0.133706 5.09714 2.01428 4.69262 5.01482 4.18167C5.56645 6.55903 6.13481 8.93639 6.70316 11.3208C9.58667 10.8241 12.5036 10.3912 15.4206 9.9725C18.3208 9.57509 21.2377 9.22736 24.1798 8.90801C23.8037 6.49516 23.4526 4.10362 23.1016 1.69078C26.1189 1.37143 29.1528 1.09465 32.1951 0.860465C32.4459 3.27331 32.705 5.70035 32.9557 8.11319C35.8977 7.879 38.8314 7.6945 41.7734 7.56676C44.7154 7.43193 47.6491 7.35387 50.5911 7.30419C50.5326 4.89135 50.4742 2.46429 50.4324 0.0372572C53.4914 -0.0124191 56.5254 -0.0124191 59.5593 0.0372572C59.5175 2.46429 59.459 4.89135 59.4256 7.30419C62.3676 7.35387 65.3013 7.43902 68.2433 7.56676C71.1853 7.7016 74.119 7.8861 77.0359 8.11319C77.2867 5.68615 77.5458 3.27331 77.8216 0.860465C80.8388 1.09465 83.8728 1.37853 86.9151 1.69078C86.539 4.10362 86.188 6.49516 85.837 8.90801C88.7539 9.22736 91.6709 9.57509 94.5962 9.9725C97.5131 10.3912 100.413 10.8241 103.314 11.3208C103.882 8.94349 105.002 4.18167 105.002 4.18167L109.858 5.16811Z" fill="#1D7217"/>
</svg>
